<?xml version="1.0" standalone="no"?><!DOCTYPE svg PUBLIC "-//W3C//DTD SVG 1.1//EN" "http://www.w3.org/Graphics/SVG/1.1/DTD/svg11.dtd"><svg t="1638078698694" class="icon" viewBox="0 0 1024 1024" version="1.1" xmlns="http://www.w3.org/2000/svg" p-id="3059" xmlns:xlink="http://www.w3.org/1999/xlink" width="50" height="50"><defs><style type="text/css"></style></defs><path d="M391.918088 206.145034c-171.435511 0-310.410726 138.975215-310.410726 310.409702 0 171.435511 138.975215 310.410726 310.410726 310.410725 171.434487 0 310.409702-138.975215 310.409702-310.410725 0-171.434487-138.975215-310.409702-310.409702-310.409702z m0 465.615576c-85.718267 0-155.205874-69.487607-155.205875-155.205874 0-85.717244 69.487607-155.204851 155.205875-155.204851 85.717244 0 155.204851 69.487607 155.204851 155.204851 0 85.718267-69.487607 155.205874-155.204851 155.205874z" fill="#F7D11E" p-id="3060"></path><path d="M391.921157 845.592704c-181.426049 0-329.041038-147.605779-329.041038-329.041038 0-181.426049 147.614989-329.031828 329.041038-329.031828s329.023642 147.605779 329.023642 329.031828c0 181.435259-147.59657 329.041038-329.023642 329.041038z m0-620.824521c-160.892387 0-291.791669 130.891096-291.791669 291.783483S231.02877 808.343335 391.921157 808.343335 683.69543 677.44303 683.69543 516.551666 552.813544 224.768183 391.921157 224.768183z m0 465.615577c-95.851045 0-173.842327-77.982072-173.842326-173.833117s77.990259-173.823907 173.842326-173.823908 173.823907 77.972862 173.823908 173.823908-77.971839 173.833117-173.823908 173.833117z m0-310.407656c-75.317383 0-136.592958 61.266365-136.592958 136.574539 0 75.317383 61.275575 136.583748 136.592958 136.583748 75.298963 0 136.574538-61.266365 136.574539-136.583748 0-75.30715-61.275575-136.574538-136.574539-136.574539z" fill="#885F44" p-id="3061"></path><path d="M782.469038 516.555759m-155.204851 0a155.204851 155.204851 0 1 0 310.409702 0 155.204851 155.204851 0 1 0-310.409702 0Z" fill="#75B9EB" p-id="3062"></path><path d="M782.475178 690.38376c-95.851045 0-173.842327-77.982072-173.842327-173.833117S686.62311 342.727759 782.475178 342.727759s173.823907 77.972862 173.823907 173.823907S878.326223 690.38376 782.475178 690.38376z m0-310.407656c-75.317383 0-136.592958 61.266365-136.592958 136.574539 0 75.317383 61.275575 136.583748 136.592958 136.583748 75.298963 0 136.574538-61.266365 136.574538-136.583748 0-75.30715-61.275575-136.574538-136.574538-136.574539z" fill="#885F44" p-id="3063"></path></svg>