<?xml version="1.0" standalone="no"?><!DOCTYPE svg PUBLIC "-//W3C//DTD SVG 1.1//EN" "http://www.w3.org/Graphics/SVG/1.1/DTD/svg11.dtd"><svg t="1638078819704" class="icon" viewBox="0 0 1024 1024" version="1.1" xmlns="http://www.w3.org/2000/svg" p-id="13191" xmlns:xlink="http://www.w3.org/1999/xlink" width="50" height="50"><defs><style type="text/css"></style></defs><path d="M650.8032 478.1056c-9.2672 0-17.9712 3.584-24.5248 10.1376-6.5536 6.5536-10.1376 15.2576-10.1376 24.5248s3.584 17.9712 10.1376 24.5248c13.5168 13.5168 35.5328 13.5168 49.0496 0 13.5168-13.5168 13.5168-35.5328 0-49.0496a34.42688 34.42688 0 0 0-24.5248-10.1376z" fill="#9fc6ff" p-id="13192"></path><path d="M708.4032 142.848H316.7744c-96 0-174.08 78.08-174.08 174.08v391.6288c0 96 78.08 174.08 174.08 174.08h545.2288c11.3152 0 20.48-9.1648 20.48-20.48V316.928c0-95.9488-78.08-174.08-174.08-174.08z m-292.608 430.6432c-16.7424 16.7424-38.7584 25.088-60.7232 25.088s-43.9808-8.3456-60.7232-25.088c-33.4848-33.4848-33.4848-87.9616 0-121.4464 33.4848-33.4848 87.9616-33.4848 121.4464 0 33.4848 33.4848 33.4848 87.9616 0 121.4464z m295.7312 0c-16.7424 16.7424-38.7584 25.088-60.7232 25.088-21.9648 0-43.9808-8.3456-60.7232-25.088a85.2736 85.2736 0 0 1-25.1392-60.7232c0-22.9376 8.96-44.4928 25.1392-60.7232 16.2304-16.2304 37.7856-25.1392 60.7232-25.1392 22.9376 0 44.4928 8.9088 60.7232 25.1392 33.4848 33.4848 33.4848 87.9616 0 121.4464z" fill="#9fc6ff" p-id="13193"></path><path d="M355.072 478.1056c-8.8576 0-17.7664 3.3792-24.5248 10.1376-13.5168 13.5168-13.5168 35.5328 0 49.0496 13.5168 13.5168 35.5328 13.5168 49.0496 0 13.5168-13.5168 13.5168-35.5328 0-49.0496a34.62144 34.62144 0 0 0-24.5248-10.1376z" fill="#9fc6ff" p-id="13194"></path></svg>