<?xml version="1.0" standalone="no"?><!DOCTYPE svg PUBLIC "-//W3C//DTD SVG 1.1//EN" "http://www.w3.org/Graphics/SVG/1.1/DTD/svg11.dtd"><svg t="1641044163156" class="icon" viewBox="0 0 1024 1024" version="1.1" xmlns="http://www.w3.org/2000/svg" p-id="6578" xmlns:xlink="http://www.w3.org/1999/xlink" width="50" height="50"><defs><style type="text/css"></style></defs><path d="M460.31226539 189.62629632h202.04576426v561.7149019h-202.04576426z" fill="#E72119" p-id="6579"></path><path d="M514.00661902 242.21355008h94.51866909v258.92303075h-94.51866909z" fill="#FFFFFF" p-id="6580"></path><path d="M612.81530083 637.17150265c0 29.06137714-23.11071403 52.72564167-51.61854065 52.72564167-28.50782663 0-51.61854066-23.52587662-51.6185418-52.72564167 0-29.06137714 23.11071403-52.72564167 51.6185418-52.72564167 28.64621454 0.13838791 51.61854066 23.66426453 51.61854065 52.72564167z" fill="#A5B8BA" p-id="6581"></path><path d="M599.94526265 637.17150265c0 21.86522624-17.29843883 39.44043975-38.74850247 39.44043975-21.31167687 0-38.74850247-17.71360142-38.74850361-39.44043975 0-21.86522624 17.29843883-39.44043975 38.74850361-39.44044089s38.74850247 17.71360142 38.74850247 39.44044089z" fill="#4E4D4D" p-id="6582"></path><path d="M311.54569216 744.69859783L116.69607879 690.31230578l145.44527246-541.92548751 194.84961337 54.52467883z" fill="#F5D645" p-id="6583"></path><path d="M324.55411826 488.95847993l-91.19736946-25.46330169 66.97955555-249.78945593 91.19736832 25.6016896z" fill="#FFFFFF" p-id="6584"></path><path d="M293.41692814 621.39532629c-7.47292558 28.09266403-35.98075221 44.56077767-63.38147897 36.94946532-27.53911467-7.74970027-43.59206571-36.67269063-36.11914012-64.76535467 7.47292558-28.09266403 35.98075221-44.56077767 63.38147897-36.94946531 27.53911467 7.74970027 43.73045362 36.67269063 36.11914012 64.76535466z" fill="#A5B8BA" p-id="6585"></path><path d="M280.96205255 617.93563875c-5.67388843 21.03490105-26.98556416 33.48977778-47.60530375 27.67750144-20.61973845-5.8122752-32.79783936-27.53911467-27.12395207-48.57401571 5.67388843-21.03490105 26.98556416-33.48977778 47.60530375-27.67750144 20.61973845 5.8122752 32.79783936 27.53911467 27.12395207 48.57401571z" fill="#4E4D4D" p-id="6586"></path><path d="M664.43384149 189.62629632h202.04576427v561.7149019h-202.04576427z" fill="#298291" p-id="6587"></path><path d="M718.26658304 242.21355008h94.65705699v258.92303075h-94.65705699z" fill="#FFFFFF" p-id="6588"></path><path d="M817.07526485 637.17150265c0 29.06137714-23.11071403 52.72564167-51.61854066 52.72564167-28.50782663 0-51.61854066-23.52587662-51.61854179-52.72564167 0-29.06137714 23.11071403-52.72564167 51.61854179-52.72564167 28.50782663 0.13838791 51.61854066 23.66426453 51.61854066 52.72564167z" fill="#A5B8BA" p-id="6589"></path><path d="M804.20522667 637.17150265c0 21.86522624-17.29843883 39.44043975-38.74850248 39.44043975-21.31167687 0-38.74850247-17.71360142-38.74850246-39.44043975 0-21.86522624 17.29843883-39.44043975 38.74850246-39.44044089s38.74850247 17.71360142 38.74850248 39.44044089z" fill="#4E4D4D" p-id="6590"></path><path d="M157.24361842 751.61797291H919.34363534v47.32852906H157.24361842z" fill="#DDCBA8" p-id="6591"></path></svg>