<?xml version="1.0" encoding="UTF-8"?>
<svg id="_图层_1" data-name=" 图层 1" xmlns="http://www.w3.org/2000/svg" version="1.1" viewBox="0 0 200 200">
  <defs>
    <style>
      .cls-1 {
        fill: #ffa39e;
      }

      .cls-1, .cls-2, .cls-3, .cls-4, .cls-5 {
        stroke-width: 0px;
      }

      .cls-2 {
        fill: #ffa39e;
      }

      .cls-3 {
        fill-opacity: .4;
      }

      .cls-3, .cls-4, .cls-5 {
        fill: #fff;
      }

      .cls-4 {
        isolation: isolate;
        opacity: .3;
      }
    </style>
  </defs>
  <path class="cls-1" d="M25,100c0,41.4,33.6,75,75,75s75-33.6,75-75S141.4,25,100,25,25,58.6,25,100Z"/>
  <path class="cls-5" d="M79.8,62.7h40.3c6.8,0,10.2,3.4,10.2,10.2v54.2c0,6.8-3.4,10.2-10.2,10.2h-40.3c-6.8,0-10.2-3.4-10.2-10.2v-54.2c0-6.8,3.4-10.2,10.2-10.2Z"/>
  <path class="cls-2" d="M81.6,74.9h22.5c2.1,0,3.1,1.1,3.1,3.1h0c0,2.1-1.1,3.1-3.1,3.1h-22.5c-2.1,0-3.1-1.1-3.1-3.1h0c0-2.1,1.1-3.1,3.1-3.1Z"/>
  <path class="cls-2" d="M81.6,89.1h36.7c2.1,0,3.2,1.1,3.2,3.1h0c0,2.1-1.1,3.1-3.1,3.1h-36.7c-2.1,0-3.1-1.1-3.1-3.1h0c0-2.1,1.1-3.1,3.1-3.1Z"/>
  <path class="cls-2" d="M81.6,103.4h36.7c2.1,0,3.2,1.1,3.2,3.1h0c0,2.1-1.1,3.1-3.1,3.1h-36.7c-2.1,0-3.1-1.1-3.1-3.1h0c0-2.1,1.1-3.1,3.1-3.1Z"/>
  <path class="cls-2" d="M81.7,117.6h36.7c2.1,0,3.1,1.1,3.1,3.1h0c0,2.1-1.1,3.2-3.1,3.2h-36.7c-2.1,0-3.1-1-3.1-3.1h0c0-2.1,1.1-3.1,3.1-3.2Z"/>
  <path class="cls-4" d="M174.7,107.3c-2.3,24-15.9,44.7-35.4,56.8-1.3-4.4-2-9-2-13.8,0-23.6,16.7-42.8,37.4-43h0Z"/>
  <path class="cls-3" d="M74.8,29.4c-3.9,19.6-20.6,33.4-38.6,31,8.9-14.2,22.5-25.2,38.6-31Z"/>
</svg>