<svg width="212.000000" height="189.000000" viewBox="0 0 212 189" fill="none" xmlns="http://www.w3.org/2000/svg" xmlns:xlink="http://www.w3.org/1999/xlink">
	<desc>
			Created with Pixso.
	</desc>
	<defs>
		<clipPath id="clip2_8">
			<rect id="主页-云盘" width="212.000000" height="189.000000" fill="white" fill-opacity="0"/>
		</clipPath>
	</defs>
	<g clip-path="url(#clip2_8)">
		<mask id="mask2_11" mask-type="alpha" maskUnits="userSpaceOnUse" x="0.000000" y="0.000000" width="212.000000" height="188.000000">
			<rect id="云盘" width="212.000000" height="188.000000" fill="#000000" fill-opacity="1.000000"/>
		</mask>
		<g mask="url(#mask2_11)">
			<path id="path" d="M185.49 140.67L165.03 28.9C163.86 21.88 158.03 16.64 151.14 16.27L60.84 16.27C53.74 16.54 47.69 21.98 46.95 29.18L27.66 140.67C27.02 142.91 26.49 145.25 26.49 147.67C26.49 160.31 36.66 170.6 49.17 170.6L162.81 170.6C175.32 170.6 185.49 160.31 185.49 147.67C185.49 135.06 185.49 143.62 185.49 140.67ZM88.92 73.6C88.92 64.16 96.55 56.4 106 56.4C115.43 56.4 123.06 64.06 123.06 73.6C129.42 73.6 134.4 78.66 134.4 85.02C134.4 91.38 129.42 96.43 123.06 96.43L89.04 96.43C82.68 96.43 77.68 91.38 77.68 85.02C77.68 78.66 82.56 73.6 88.92 73.6Z" fill="#37AFFB" fill-opacity="0.800000" fill-rule="nonzero"/>
			<path id="path" d="M162.81 159.28L49.07 159.28C42.71 159.28 37.73 154.23 37.73 147.87C37.73 141.5 42.71 136.46 49.07 136.46L162.7 136.46C169.06 136.46 174.04 141.5 174.04 147.87C174.25 154.03 169.06 159.28 162.81 159.28ZM157.08 142.07C154.01 142.07 151.36 144.69 151.36 147.78C151.36 150.86 153.9 153.48 157.08 153.48C160.15 153.48 162.81 150.86 162.81 147.78C162.81 144.69 160.26 142.07 157.08 142.07Z" fill="#FF5D50" fill-opacity="0.800000" fill-rule="nonzero"/>
		</g>
	</g>
</svg>
