<?xml version="1.0" encoding="UTF-8"?>
<svg id="_图层_1" data-name="图层 1" xmlns="http://www.w3.org/2000/svg" version="1.1" viewBox="0 0 200 200">
  <defs>
    <style>
      .cls-1 {
        fill: #E46D67;
      }

      .cls-1, .cls-2, .cls-3 {
        stroke-width: 0px;
      }

      .cls-2 {
        fill: #FF5D50;
      }

      .cls-3 {
        fill: #fff;
      }
    </style>
  </defs>
  <path class="cls-2" d="M25.4,109.5l128.4,71.4c6.9,3.8,15.5,1.4,19.3-5.5,1.2-2.1,1.8-4.5,1.8-6.9V42.4c0-13.9-11.2-25.1-25.1-25.1H50.5c-13.9,0-25.1,11.2-25.1,25.1s0,0,0,0v67.2Z"/>
  <path class="cls-1" d="M175,109.5L46.2,180.7c-6.9,3.8-15.6,1.4-19.4-5.5-1.2-2.1-1.8-4.5-1.8-6.9V42.5c0-13.8,11.3-25,25.1-25,0,0,0,0,0,0h99.7c13.9,0,25.2,11.2,25.2,25h0v67Z"/>
  <path class="cls-3" d="M104,48.1l7,14.2c.6,1.3,1.8,2.1,3.2,2.3l15.7,2.3c2.3.3,3.9,2.5,3.6,4.8-.1.9-.6,1.8-1.2,2.4l-11.4,11.1c-1,1-1.5,2.4-1.2,3.8l2.7,15.7c.4,2.3-1.2,4.5-3.5,4.9-.9.2-1.9,0-2.7-.4l-14.1-7.4c-1.2-.7-2.7-.7-3.9,0l-14.1,7.4c-2.1,1.1-4.6.3-5.7-1.7-.5-.8-.6-1.8-.4-2.8l2.7-15.6c.2-1.4-.2-2.8-1.2-3.8l-11.4-11.1c-1.7-1.6-1.7-4.3,0-6,.6-.7,1.5-1.1,2.4-1.2l15.7-2.3c1.4-.2,2.6-1.1,3.2-2.3l7-14.2c1-2.1,3.5-3,5.6-2,.9.4,1.6,1.1,2,2Z"/>
</svg>