<?xml version="1.0" encoding="UTF-8"?>
<svg id="_图层_1" xmlns="http://www.w3.org/2000/svg" version="1.1" viewBox="0 0 200 200">
  <!-- Generator: Adobe Illustrator 29.5.1, SVG Export Plug-In . SVG Version: 2.1.0 Build 141)  -->
  <defs>
    <style>
      .st0 {
        fill: #fff;
      }

      .st1 {
        fill: #feb833;
      }
    </style>
  </defs>
  <path class="st1" d="M0,100c0,55.2,44.8,100,100,100s100-44.8,100-100S155.2,0,100,0,0,44.8,0,100Z"/>
  <path class="st0" d="M67.9,46c.8-1.1,2.1-1.7,3.4-1.7h54.2c1.3,0,2.5.6,3.3,1.6l31.9,40.3c2.5,3.2,2.2,7.7-.7,10.5l-53.2,52.3c-3.9,3.8-10.1,3.8-14,0l-53.4-52.5c-2.8-2.7-3.1-7.1-.8-10.2l29.3-40.2h0v-.1Z"/>
  <path class="st1" d="M131.9,83.2c1.4,1.4,1.3,3.7-.1,5l-30,28.8c-1.4,1.3-3.6,1.3-5,0l-28.5-28.8c-1.4-1.4-1.4-3.6,0-5s3.6-1.4,5,0l26.1,26.3,27.5-26.4c1.4-1.4,3.7-1.3,5,.1h0Z"/>
</svg>