<svg width="186.000000" height="207.000000" viewBox="0 0 186 207" fill="none" xmlns="http://www.w3.org/2000/svg" xmlns:xlink="http://www.w3.org/1999/xlink">
	<desc>
			Created with Pixso.
	</desc>
	<defs>
		<clipPath id="clip2_1">
			<rect id="主页-直播" width="186.000000" height="207.000000" fill="white" fill-opacity="0"/>
		</clipPath>
	</defs>
	<g clip-path="url(#clip2_1)">
		<mask id="mask2_4" mask-type="alpha" maskUnits="userSpaceOnUse" x="0.000000" y="0.000000" width="186.000000" height="205.970154">
			<rect id="直播" width="186.000000" height="205.970139" fill="#000000" fill-opacity="1.000000"/>
		</mask>
		<g mask="url(#mask2_4)">
			<path id="path" d="M29.57 18.02L156.42 18.02C167.12 18.02 175.77 29.83 175.77 44.02L175.77 141.15C175.77 155.8 167.02 167.16 156.42 167.16L29.57 167.16C18.86 167.16 10.22 155.35 10.22 141.15L10.22 44.48C10.22 29.83 18.97 18.02 29.57 18.02ZM50.22 63.91L50.22 78.56L63.79 78.56L63.79 122.87L77.37 122.87L77.37 78.56L90.95 78.56L90.95 63.91L50.22 63.91ZM92.81 63.91L109.27 122.87L123.78 122.87L139.86 63.91L126.29 63.91L116.62 106.16L106.95 63.91L92.72 63.91L92.81 63.91Z" fill="#2EC99E" fill-opacity="1.000000" fill-rule="nonzero"/>
			<path id="path" d="M68.35 182.72L123.5 182.72C128.06 182.72 131.87 187.61 131.87 194.09C131.87 200.56 128.34 205.45 123.5 205.45L68.35 205.45C63.79 205.45 59.98 200.56 59.98 194.09C59.98 187.61 63.51 182.72 68.35 182.72Z" fill="#FF5D50" fill-opacity="1.000000" fill-rule="nonzero"/>
		</g>
	</g>
</svg>
