<?xml version="1.0" standalone="no"?><!DOCTYPE svg PUBLIC "-//W3C//DTD SVG 1.1//EN" "http://www.w3.org/Graphics/SVG/1.1/DTD/svg11.dtd"><svg t="1720963623808" class="icon" viewBox="0 0 1025 1024" version="1.1" xmlns="http://www.w3.org/2000/svg" p-id="1080" xmlns:xlink="http://www.w3.org/1999/xlink" width="200.1953125" height="200"><path d="M0 512a512.988417 512 0 1 0 1025.976834 0 512.988417 512 0 1 0-1025.976834 0Z" fill="#FD9173" p-id="1081"></path><path d="M1024 563.397683c-15.769205 163.110548-108.46295 303.784031-241.450502 385.482626-8.792958-29.411336-13.561081-60.928-13.561081-93.707861 0-160.246116 113.952618-290.321792 255.011583-291.774765z" fill="#FFFFFF" opacity=".3" p-id="1082"></path><path d="M338.03861 31.629344c-26.420386 134.399012-139.942054 228.015938-260.942085 211.639845C137.374147 146.285714 229.122965 70.962409 338.03861 31.629344z" fill="#FFFFFF" fill-opacity=".4" p-id="1083"></path><path d="M512.988417 512.988417m-240.185328 0a240.185328 240.185328 0 1 0 480.370656 0 240.185328 240.185328 0 1 0-480.370656 0Z" fill="#FFFFFF" p-id="1084"></path><path d="M512 407.227799a17.791506 17.791506 0 0 1 17.791506 17.791506v95.481081a3.953668 3.953668 0 0 0 1.445065 3.056185l75.084109 61.675244a17.791506 17.791506 0 0 1-22.587305 27.49776l-83.748572-68.795799a15.808741 15.808741 0 0 1-5.776309-12.218811V425.019305a17.791506 17.791506 0 0 1 17.791506-17.791506z" fill="#FD9173" p-id="1085"></path></svg>