<?xml version="1.0" encoding="UTF-8"?>
<svg id="_图层_1" data-name="图层 1" xmlns="http://www.w3.org/2000/svg" version="1.1" viewBox="0 0 200 200">
  <defs>
    <style>
      .cls-1 {
        fill: #6dc9ff;
      }

      .cls-1, .cls-2, .cls-3, .cls-4 {
        stroke-width: 0px;
      }

      .cls-2 {
        fill-opacity: .4;
      }

      .cls-2, .cls-3, .cls-4 {
        fill: #fff;
      }

      .cls-3 {
        isolation: isolate;
        opacity: .3;
      }
    </style>
  </defs>
  <path class="cls-1" d="M0,100c0,55.2,44.8,100,100,100s100-44.8,100-100S155.2,0,100,0,0,44.8,0,100Z"/>
  <path class="cls-4" d="M96.6,139.7h46.8c2,0,3.6,1.6,3.6,3.6s-1.6,3.6-3.6,3.6h-46.8v-7.1h0Z"/>
  <path class="cls-4" d="M53.1,99.9c0,25.9,20.9,46.9,46.7,46.9s46.7-21,46.7-46.9c0-25.9-20.9-46.9-46.7-46.9-25.8,0-46.7,21-46.7,46.9,0,0,0,0,0,0Z"/>
  <path class="cls-1" d="M68.4,99.2c0,4.5,3.7,8.2,8.2,8.2s8.2-3.7,8.2-8.2-3.7-8.2-8.2-8.2-8.2,3.7-8.2,8.2Z"/>
  <path class="cls-1" d="M91.3,75.4c0,4.5,3.7,8.2,8.2,8.2s8.2-3.7,8.2-8.2-3.7-8.2-8.2-8.2-8.2,3.7-8.2,8.2Z"/>
  <path class="cls-1" d="M91.7,125c0,4.5,3.7,8.2,8.2,8.2,4.5,0,8.2-3.7,8.2-8.2h0c0-4.6-3.7-8.2-8.2-8.2s-8.2,3.7-8.2,8.2Z"/>
  <path class="cls-1" d="M115.5,99.2c0,4.5,3.7,8.2,8.2,8.2s8.2-3.7,8.2-8.2-3.7-8.2-8.2-8.2-8.2,3.7-8.2,8.2Z"/>
  <path class="cls-2" d="M66.4,5.8c-5.2,26.2-27.5,44.5-51.4,41.3C26.9,28.2,45,13.5,66.4,5.8Z"/>
  <path class="cls-3" d="M199.6,109.7c-3.1,32-21.2,59.6-47.2,75.7-1.7-5.8-2.7-12-2.7-18.4,0-31.5,22.3-57,49.8-57.3Z"/>
</svg>