<?xml version="1.0" encoding="UTF-8"?>
<svg id="_图层_1" xmlns="http://www.w3.org/2000/svg" version="1.1" viewBox="0 0 200 200">
  <!-- Generator: Adobe Illustrator 29.5.1, SVG Export Plug-In . SVG Version: 2.1.0 Build 141)  -->
  <defs>
    <style>
      .st0 {
        fill: #2ec99d;
      }

      .st1 {
        fill: #fff;
      }
    </style>
  </defs>
  <path class="st0" d="M0,100c0,55.2,44.8,100,100,100s100-44.8,100-100S155.2,0,100,0,0,44.8,0,100Z"/>
  <path class="st1" d="M118.2,95c-3.8,2.2-3.8,7.7,0,10l28.7,16.6c3.8,2.2,8.6-.6,8.6-5v-33.1c0-4.4-4.8-7.2-8.6-5l-28.7,16.6v-.1Z"/>
  <path class="st1" d="M56.9,60.9h68.3c8.4,0,12.6,4.2,12.6,12.6v53.1c0,8.4-4.2,12.6-12.6,12.6H56.9c-8.4,0-12.6-4.2-12.6-12.6v-53.1c0-8.4,4.2-12.6,12.6-12.6Z"/>
  <path class="st0" d="M104.4,97c2.3,1.3,2.3,4.7,0,6l-17.4,10c-2.3,1.3-5.2-.3-5.2-3v-20.1c0-2.7,2.9-4.4,5.2-3l17.4,10v.1Z"/>
</svg>