<svg width="200.000000" height="200.000000" viewBox="0 0 200 200" fill="none" xmlns="http://www.w3.org/2000/svg" xmlns:xlink="http://www.w3.org/1999/xlink">
	<desc>
			Created with Pixso.
	</desc>
	<defs>
		<clipPath id="clip2_1">
			<rect id="直播" width="200.000000" height="200.000000" fill="white" fill-opacity="0"/>
		</clipPath>
	</defs>
	<g clip-path="url(#clip2_1)">
		<path d="M31.8 17.5L168.2 17.5C179.7 17.5 189 28.97 189 42.75L189 137.06C189 151.29 179.6 162.32 168.2 162.32L31.8 162.32C20.29 162.32 11 150.85 11 137.06L11 43.2C11 28.97 20.4 17.5 31.8 17.5ZM54 62.06L54 76.29L68.6 76.29L68.6 119.31L83.2 119.31L83.2 76.29L97.8 76.29L97.8 62.06L54 62.06ZM99.8 62.06L117.5 119.31L133.1 119.31L150.39 62.06L135.8 62.06L125.4 103.09L115 62.06L99.7 62.06L99.8 62.06Z" fill="#2EC99D" fill-opacity="1.000000" fill-rule="nonzero"/>
		<path d="M73.5 177.43L132.8 177.43C137.7 177.43 141.8 182.18 141.8 188.47C141.8 194.75 138 199.5 132.8 199.5L73.5 199.5C68.6 199.5 64.5 194.75 64.5 188.47C64.5 182.18 68.3 177.43 73.5 177.43Z" fill="#F08534" fill-opacity="1.000000" fill-rule="nonzero"/>
	</g>
</svg>
