<?xml version="1.0" encoding="UTF-8"?>
<svg id="_图层_1" data-name=" 图层 1" xmlns="http://www.w3.org/2000/svg" version="1.1" viewBox="0 0 200 200">
  <defs>
    <style>
      .cls-1 {
        fill: #feb833;
      }

      .cls-1, .cls-2, .cls-3, .cls-4, .cls-5 {
        stroke-width: 0px;
      }

      .cls-2 {
        fill-opacity: .4;
      }

      .cls-2, .cls-3, .cls-5 {
        fill: #fff;
      }

      .cls-3 {
        isolation: isolate;
        opacity: .3;
      }

      .cls-4 {
        fill: #fec351;
      }
    </style>
  </defs>
  <path class="cls-1" d="M0,100c0,55.2,44.8,100,100,100s100-44.8,100-100S155.2,0,100,0,0,44.8,0,100Z"/>
  <path class="cls-5" d="M67.9,46c.8-1.1,2.1-1.7,3.4-1.7h54.2c1.3,0,2.5.6,3.3,1.6l31.9,40.3c2.5,3.2,2.2,7.7-.7,10.5l-53.2,52.3c-3.9,3.8-10.1,3.8-14,0l-53.4-52.5c-2.8-2.7-3.1-7.1-.8-10.2l29.3-40.2h0Z"/>
  <path class="cls-4" d="M131.9,83.2c1.4,1.4,1.3,3.7-.1,5l-30,28.8c-1.4,1.3-3.6,1.3-5,0l-28.5-28.8c-1.4-1.4-1.4-3.6,0-5s3.6-1.4,5,0l26.1,26.3,27.5-26.4c1.4-1.4,3.7-1.3,5,0h0Z"/>
  <path class="cls-2" d="M66.4,5.8c-5.2,26.2-27.5,44.5-51.4,41.3C26.9,28.2,45,13.5,66.4,5.8Z"/>
  <path class="cls-3" d="M199.6,129.3c-3.1,32-21.2,59.6-47.2,75.7-1.7-5.8-2.6-12-2.6-18.4,0-31.5,22.3-57,49.8-57.3Z"/>
</svg>