<?xml version="1.0" encoding="UTF-8"?>
<svg id="_图层_1" data-name=" 图层 1" xmlns="http://www.w3.org/2000/svg" version="1.1" viewBox="0 0 200 200">
<style>
	.st0{fill:#FEB833;}
	.st1{fill:#FFFFFF;}
	.st2{fill:#FFFFFF;fill-opacity:0.4;}
	.st3{opacity:0.3;fill:#FFFFFF;enable-background:new    ;}
</style>
<path class="st0" d="M0,100c0,55.2,44.8,100,100,100s100-44.8,100-100S155.2,0,100,0S0,44.8,0,100z"/>
<path class="st1" d="M67.9,46c0.8-1.1,2.1-1.7,3.4-1.7h54.2c1.3,0,2.5,0.6,3.3,1.6l31.9,40.3c2.5,3.2,2.2,7.7-0.7,10.5L106.8,149
	c-3.9,3.8-10.1,3.8-14,0L39.4,96.5c-2.8-2.7-3.1-7.1-0.8-10.2l29.3-40.2l0,0V46z"/>
<path class="st0" d="M131.9,83.2c1.4,1.4,1.3,3.7-0.1,5l-30,28.8c-1.4,1.3-3.6,1.3-5,0L68.3,88.2c-1.4-1.4-1.4-3.6,0-5s3.6-1.4,5,0
	l26.1,26.3l27.5-26.4C128.3,81.7,130.6,81.8,131.9,83.2L131.9,83.2L131.9,83.2z"/>
<path class="st2" d="M66.4,5.8C61.2,32,38.9,50.3,15,47.1C26.9,28.2,45,13.5,66.4,5.8z"/>
<path class="st3" d="M199.9,109.5c-3.1,32-21.2,59.6-47.2,75.7c-1.7-5.8-2.6-12-2.6-18.4C150.1,135.3,172.4,109.8,199.9,109.5z"/>
</svg>
