<svg width="200.000000" height="200.000000" viewBox="0 0 200 200" fill="none" xmlns="http://www.w3.org/2000/svg" xmlns:xlink="http://www.w3.org/1999/xlink">
	<desc>
			Created with Pixso.
	</desc>
	<defs>
		<clipPath id="clip2_1">
			<rect id="点播" width="200.000000" height="200.000000" fill="white" fill-opacity="0"/>
		</clipPath>
	</defs>
	<g clip-path="url(#clip2_1)">
		<path id="path" d="M161.68 17.5L38.41 17.5C23.3 17.5 11 30.44 11 46.68L11 163.31C11 179.34 23.3 192.5 38.41 192.5L161.58 192.5C176.69 192.5 189 179.34 189 163.31L189 46.68C189 30.65 176.69 17.5 161.58 17.5L161.68 17.5ZM62.32 54C62.32 60.05 57.72 64.93 52.02 64.93C46.31 64.93 41.71 60.05 41.71 54L41.71 46.68C41.71 40.63 46.31 35.75 52.02 35.75C57.72 35.75 62.32 40.63 62.32 46.68L62.32 54ZM110.35 54C110.35 60.05 105.75 64.93 100.05 64.93C94.34 64.93 89.74 60.05 89.74 54L89.74 46.68C89.74 40.63 94.34 35.75 100.05 35.75C105.75 35.75 110.35 40.63 110.35 46.68L110.35 54ZM158.18 54C158.18 60.05 153.58 64.93 147.87 64.93C142.17 64.93 137.57 60.05 137.57 54L137.57 46.68C137.57 40.63 142.17 35.75 147.87 35.75C153.58 35.75 158.18 40.63 158.18 46.68L158.18 54Z" fill="#56B8D1" fill-opacity="1.000000" fill-rule="nonzero"/>
		<path id="path" d="M32 107.1C32 95.7 41.3 86.5 52.6 86.5L148.5 86.5C159.8 86.5 169.1 95.8 169.1 107.1L169.1 148.2C169.1 159.6 159.8 168.8 148.5 168.8L52.6 168.8C41.3 168.8 32 159.5 32 148.2L32 107.1Z" fill="#8CD2EB" fill-opacity="1.000000" fill-rule="nonzero"/>
		<path id="path" d="M121.4 133.27C124.7 131.17 125.5 127.07 123.6 123.77C123.1 122.87 122.2 122.27 121.4 121.57L86.4 99.57C83.1 97.47 79 98.57 77 101.77C76.3 102.77 76 104.17 76 105.37L76 149.27C76 153.07 79.1 156.17 82.9 156.17C86.7 156.17 85.5 155.87 86.5 155.17L121.4 133.27Z" fill="#F08534" fill-opacity="1.000000" fill-rule="nonzero"/>
	</g>
</svg>
