<?xml version="1.0" encoding="UTF-8"?>
<svg id="_图层_1" data-name=" 图层 1" xmlns="http://www.w3.org/2000/svg" version="1.1" viewBox="0 0 200 200">
  <defs>
    <style>
      .cls-1 {
        fill: #587bff;
      }

      .cls-1, .cls-2, .cls-3, .cls-4 {
        stroke-width: 0px;
      }

      .cls-2 {
        fill-opacity: .4;
      }

      .cls-2, .cls-3, .cls-4 {
        fill: #fff;
      }

      .cls-3 {
        isolation: isolate;
        opacity: .3;
      }
    </style>
  </defs>
  <path class="cls-1" d="M0,100c0,55.2,44.8,100,100,100s100-44.8,100-100S155.2,0,100,0,0,44.8,0,100Z"/>
  <path class="cls-4" d="M43.1,113c0,14.4,11.7,26.1,26.1,26.1h61.7c14.4,0,26.1-11.7,26.1-26.1s-6.9-20.5-16.6-24.3v-.6c0-15.1-12.2-27.3-27.2-27.3s-17.9,4.9-22.8,12.3c-2.6-1.8-5.8-2.8-9.2-2.8-9.2,0-16.6,7.4-16.6,16.6v.4c-12.1,2.2-21.3,12.9-21.3,25.7h-.2Z"/>
  <path class="cls-2" d="M66.4,5.8c-5.2,26.2-27.5,44.5-51.4,41.3C26.9,28.2,45,13.5,66.4,5.8Z"/>
  <path class="cls-3" d="M199.6,109.7c-3.1,32-21.2,59.6-47.2,75.7-1.7-5.8-2.6-12-2.6-18.4,0-31.5,22.3-57,49.8-57.3Z"/>
</svg>