<?xml version="1.0" encoding="UTF-8"?>
<svg id="_图层_1" data-name="图层 1" xmlns="http://www.w3.org/2000/svg" version="1.1" viewBox="0 0 200 200">
  <defs>
    <style>
      .cls-1 {
        fill: #ff7772;
      }

      .cls-1, .cls-2, .cls-3, .cls-4 {
        stroke-width: 0px;
      }

      .cls-2 {
        fill-opacity: .4;
      }

      .cls-2, .cls-3, .cls-4 {
        fill: #fff;
      }

      .cls-3 {
        isolation: isolate;
        opacity: .3;
      }
    </style>
  </defs>
  <path class="cls-1" d="M0,100c0,55.2,44.8,100,100,100s100-44.8,100-100S155.2,0,100,0,0,44.8,0,100Z"/>
  <path class="cls-4" d="M58.4,87.5c0-4,2.4-7.2,5.3-7.2h90.4v-5.4c0-4.4-2.5-7.9-5.5-7.9h-46l-4.8-7.2c-2.1-4.3-5.1-6.3-7.5-6.3h-38c-2.4,0-4.4,2.8-4.4,6.3v75.2s10.5-47.5,10.5-47.5Z"/>
  <path class="cls-4" d="M155.4,85.1h-88.2c-2.6,0-4.7,2.9-4.7,6.5l-10.8,48.9c0,3.6,2.1,6.5,4.7,6.5h88.2c2.6,0,4.7-2.9,4.7-6.5l10.8-48.9c0-3.6-2.1-6.5-4.7-6.5ZM128.6,112.1l-8.9,9.5c-.4.4-.6,1.3-.6,1.9l2.1,13.4c.1.9-.1,1.8-.7,2.2-.3.2-.6.4-1,.4s-.7-.1-1.1-.3l-11-6.4c-.4-.3-1.3-.3-1.8,0l-11,6.3c-.8.4-1.5.4-2.1,0-.6-.5-.8-1.3-.7-2.2l2.1-13.4c0-.6-.2-1.5-.5-1.9l-8.9-9.5c-.6-.7-.8-1.5-.6-2.2.2-.8.8-1.2,1.7-1.4l12.3-1.9c.5,0,1.2-.6,1.5-1.2l5.5-12.2c.4-.9,1-1.4,1.7-1.4s1.3.5,1.7,1.4l5.5,12.2c.2.5,1,1.1,1.5,1.2l12.3,2c.9.1,1.5.6,1.7,1.4.2.8,0,1.6-.6,2.2Z"/>
  <path class="cls-3" d="M199.6,109.7c-3.1,32-21.2,59.6-47.2,75.7-1.7-5.8-2.6-12-2.6-18.4,0-31.5,22.3-57,49.8-57.3Z"/>
  <path class="cls-2" d="M66.4,5.8c-5.2,26.2-27.5,44.5-51.4,41.3C26.9,28.2,45,13.5,66.4,5.8Z"/>
</svg>