<?xml version="1.0" encoding="UTF-8"?>
<svg id="_图层_1" data-name="图层_1" xmlns="http://www.w3.org/2000/svg" version="1.1" viewBox="0 0 200.2 200">
  <!-- Generator: Adobe Illustrator 29.5.1, SVG Export Plug-In . SVG Version: 2.1.0 Build 141)  -->
  <defs>
    <style>
      .st0 {
        fill: #fff;
      }

      .st1 {
        fill: #fd9173;
      }
    </style>
  </defs>
  <path class="st1" d="M.19,100c0,55.23,44.77,100,100,100s100-44.77,100-100S155.42,0,100.19,0,.19,44.77.19,100Z"/>
  <path class="st0" d="M53.28,100.19c-.01,25.91,20.98,46.92,46.89,46.93,25.91.01,46.92-20.98,46.93-46.89v-.04c0-25.91-20.99-46.91-46.9-46.92-25.91,0-46.91,20.99-46.92,46.9,0,0,0,.01,0,.02Z"/>
  <path class="st1" d="M100,79.54c1.92,0,3.47,1.56,3.47,3.47v18.65c0,.23.1.45.28.6l14.66,12.05c1.48,1.22,1.7,3.41.48,4.89-1.22,1.48-3.41,1.7-4.89.48l-16.36-13.44c-.71-.59-1.13-1.46-1.13-2.39v-20.84c0-1.92,1.56-3.47,3.47-3.47h0Z"/>
</svg>