<?xml version="1.0" encoding="UTF-8"?>
<svg id="_图层_1" xmlns="http://www.w3.org/2000/svg" version="1.1" viewBox="0 0 200 200">
  <!-- Generator: Adobe Illustrator 29.5.1, SVG Export Plug-In . SVG Version: 2.1.0 Build 141)  -->
  <defs>
    <style>
      .st0 {
        fill: #fff;
      }

      .st1 {
        fill: #ff7772;
      }
    </style>
  </defs>
  <path class="st1" d="M0,100c0,55.2,44.8,100,100,100s100-44.8,100-100S155.2,0,100,0,0,44.8,0,100Z"/>
  <path class="st0" d="M58.4,87.5c0-4,2.4-7.2,5.3-7.2h90.4v-5.4c0-4.4-2.5-7.9-5.5-7.9h-46l-4.8-7.2c-2.1-4.3-5.1-6.3-7.5-6.3h-38c-2.4,0-4.4,2.8-4.4,6.3v75.2l10.5-47.5Z"/>
  <path class="st0" d="M155.4,85.1h-88.2c-2.6,0-4.7,2.9-4.7,6.5l-10.8,48.9c0,3.6,2.1,6.5,4.7,6.5h88.2c2.6,0,4.7-2.9,4.7-6.5l10.8-48.9c0-3.6-2.1-6.5-4.7-6.5ZM128.6,112.1l-8.9,9.5c-.4.4-.6,1.3-.6,1.9l2.1,13.4c.1.9-.1,1.8-.7,2.2-.3.2-.6.4-1,.4s-.7-.1-1.1-.3l-11-6.4c-.4-.3-1.3-.3-1.8,0l-11,6.3c-.8.4-1.5.4-2.1,0-.6-.5-.8-1.3-.7-2.2l2.1-13.4c0-.6-.2-1.5-.5-1.9l-8.9-9.5c-.6-.7-.8-1.5-.6-2.2.2-.8.8-1.2,1.7-1.4l12.3-1.9c.5,0,1.2-.6,1.5-1.2l5.5-12.2c.4-.9,1-1.4,1.7-1.4s1.3.5,1.7,1.4l5.5,12.2c.2.5,1,1.1,1.5,1.2l12.3,2c.9.1,1.5.6,1.7,1.4s0,1.6-.6,2.2l-.1-.1Z"/>
</svg>