<?xml version="1.0" encoding="UTF-8"?>
<svg id="_图层_1" xmlns="http://www.w3.org/2000/svg" version="1.1" viewBox="0 0 200 200">
  <!-- Generator: Adobe Illustrator 29.5.1, SVG Export Plug-In . SVG Version: 2.1.0 Build 141)  -->
  <defs>
    <style>
      .st0 {
        fill: #fff;
      }

      .st1 {
        fill: #ffa39e;
      }
    </style>
  </defs>
  <path class="st1" d="M25,100c0,41.4,33.6,75,75,75s75-33.6,75-75S141.4,25,100,25,25,58.6,25,100Z"/>
  <path class="st0" d="M79.8,62.7h40.3c6.8,0,10.2,3.4,10.2,10.2v54.2c0,6.8-3.4,10.2-10.2,10.2h-40.3c-6.8,0-10.2-3.4-10.2-10.2v-54.2c0-6.8,3.4-10.2,10.2-10.2Z"/>
  <path class="st1" d="M81.6,74.9h22.5c2.1,0,3.1,1.1,3.1,3.1h0c0,2.1-1.1,3.1-3.1,3.1h-22.5c-2.1,0-3.1-1.1-3.1-3.1h0c0-2.1,1.1-3.1,3.1-3.1Z"/>
  <path class="st1" d="M81.6,89.1h36.7c2.1,0,3.2,1.1,3.2,3.1h0c0,2.1-1.1,3.1-3.1,3.1h-36.7c-2.1,0-3.1-1.1-3.1-3.1h0c0-2.1,1.1-3.1,3.1-3.1h-.1Z"/>
  <path class="st1" d="M81.6,103.4h36.7c2.1,0,3.2,1.1,3.2,3.1h0c0,2.1-1.1,3.1-3.1,3.1h-36.7c-2.1,0-3.1-1.1-3.1-3.1h0c0-2.1,1.1-3.1,3.1-3.1h-.1Z"/>
  <path class="st1" d="M81.7,117.6h36.7c2.1,0,3.1,1.1,3.1,3.1h0c0,2.1-1.1,3.2-3.1,3.2h-36.7c-2.1,0-3.1-1-3.1-3.1h0c0-2.1,1.1-3.1,3.1-3.2Z"/>
</svg>