<svg width="189.000000" height="201.000000" viewBox="0 0 189 201" fill="none" xmlns="http://www.w3.org/2000/svg" xmlns:xlink="http://www.w3.org/1999/xlink">
			<path id="path" d="M152.78 17.5L36.29 17.5C22.01 17.5 10.39 30.44 10.39 46.68L10.39 163.31C10.39 179.34 22.01 192.5 36.29 192.5L152.69 192.5C166.97 192.5 178.6 179.34 178.6 163.31L178.6 46.68C178.6 30.65 167.06 17.5 152.78 17.5ZM58.89 54C58.89 60.05 54.54 64.93 49.15 64.93C43.76 64.93 39.41 60.05 39.41 54L39.41 46.68C39.41 40.63 43.76 35.75 49.15 35.75C54.54 35.75 58.89 40.63 58.89 46.68L58.89 54ZM104.28 54C104.28 60.05 99.93 64.93 94.54 64.93C89.15 64.93 84.8 60.05 84.8 54L84.8 46.68C84.8 40.63 89.15 35.75 94.54 35.75C99.93 35.75 104.28 40.63 104.28 46.68L104.28 54ZM149.48 54C149.48 60.05 145.13 64.93 139.73 64.93C134.35 64.93 130 60.05 130 54L130 46.68C130 40.63 134.35 35.75 139.73 35.75C145.13 35.75 149.48 40.63 149.48 46.68L149.48 54Z" fill="#56B8D1" fill-opacity="1.000000" fill-rule="nonzero"/>
			<path id="path" d="M30.24 107.1C30.24 95.7 39.02 86.5 49.7 86.5L140.33 86.5C151.01 86.5 159.79 95.8 159.79 107.1L159.79 148.2C159.79 159.6 151.01 168.8 140.33 168.8L49.7 168.8C39.02 168.8 30.24 159.5 30.24 148.2L30.24 107.1Z" fill="#8CD2EB" fill-opacity="1.000000" fill-rule="nonzero"/>
			<path id="path" d="M114.72 133.27C117.84 131.17 118.59 127.07 116.8 123.77C116.32 122.87 115.47 122.27 114.72 121.57L81.64 99.57C78.52 97.47 74.65 98.57 72.76 101.77C72.1 102.77 71.82 104.17 71.82 105.37L71.82 149.27C71.82 153.07 74.74 156.17 78.34 156.17C81.93 156.17 80.79 155.87 81.74 155.17L114.72 133.27Z" fill="#FF5D50" fill-opacity="1.000000" fill-rule="nonzero"/>
</svg>
