<?xml version="1.0" encoding="UTF-8"?>
<svg id="_图层_1" data-name="图层 1" xmlns="http://www.w3.org/2000/svg" version="1.1" viewBox="0 0 200 200">
  <defs>
    <style>
      .cls-1 {
        fill: #2ec99d;
      }

      .cls-1, .cls-2, .cls-3, .cls-4 {
        stroke-width: 0px;
      }

      .cls-2 {
        fill-opacity: .4;
      }

      .cls-2, .cls-3, .cls-4 {
        fill: #fff;
      }

      .cls-3 {
        isolation: isolate;
        opacity: .3;
      }
    </style>
  </defs>
  <path class="cls-1" d="M0,100c0,55.2,44.8,100,100,100s100-44.8,100-100S155.2,0,100,0,0,44.8,0,100Z"/>
  <path class="cls-4" d="M118.2,95c-3.8,2.2-3.8,7.7,0,10l28.7,16.6c3.8,2.2,8.6-.6,8.6-5v-33.1c0-4.4-4.8-7.2-8.6-5l-28.7,16.6Z"/>
  <path class="cls-4" d="M56.9,60.9h68.3c8.4,0,12.6,4.2,12.6,12.6v53.1c0,8.4-4.2,12.6-12.6,12.6H56.9c-8.4,0-12.6-4.2-12.6-12.6v-53.1c0-8.4,4.2-12.6,12.6-12.6Z"/>
  <path class="cls-1" d="M104.4,97c2.3,1.3,2.3,4.7,0,6l-17.4,10c-2.3,1.3-5.2-.3-5.2-3v-20.1c0-2.7,2.9-4.4,5.2-3l17.4,10Z"/>
  <path class="cls-2" d="M66.4,5.8c-5.2,26.2-27.5,44.5-51.4,41.3C26.9,28.2,45,13.5,66.4,5.8Z"/>
  <path class="cls-3" d="M199.6,109.7c-3.1,32-21.2,59.6-47.2,75.7-1.7-5.8-2.6-12-2.6-18.4,0-31.5,22.3-57,49.8-57.3Z"/>
</svg>