<?xml version="1.0" encoding="UTF-8"?>
<svg id="_图层_1" xmlns="http://www.w3.org/2000/svg" version="1.1" viewBox="0 0 200 200">
  <!-- Generator: Adobe Illustrator 29.5.1, SVG Export Plug-In . SVG Version: 2.1.0 Build 141)  -->
  <defs>
    <style>
      .st0 {
        fill: #6dc9ff;
      }

      .st1 {
        fill: #fff;
      }
    </style>
  </defs>
  <path class="st0" d="M0,100c0,55.2,44.8,100,100,100s100-44.8,100-100S155.2,0,100,0,0,44.8,0,100Z"/>
  <path class="st1" d="M96.6,139.7h46.8c2,0,3.6,1.6,3.6,3.6s-1.6,3.6-3.6,3.6h-46.8v-7.1h0v-.1Z"/>
  <path class="st1" d="M53.1,99.9c0,25.9,20.9,46.9,46.7,46.9s46.7-21,46.7-46.9-20.9-46.9-46.7-46.9-46.7,21-46.7,46.9h0Z"/>
  <path class="st0" d="M68.4,99.2c0,4.5,3.7,8.2,8.2,8.2s8.2-3.7,8.2-8.2-3.7-8.2-8.2-8.2-8.2,3.7-8.2,8.2Z"/>
  <path class="st0" d="M91.3,75.4c0,4.5,3.7,8.2,8.2,8.2s8.2-3.7,8.2-8.2-3.7-8.2-8.2-8.2-8.2,3.7-8.2,8.2Z"/>
  <path class="st0" d="M91.7,125c0,4.5,3.7,8.2,8.2,8.2s8.2-3.7,8.2-8.2h0c0-4.6-3.7-8.2-8.2-8.2s-8.2,3.7-8.2,8.2Z"/>
  <path class="st0" d="M115.5,99.2c0,4.5,3.7,8.2,8.2,8.2s8.2-3.7,8.2-8.2-3.7-8.2-8.2-8.2-8.2,3.7-8.2,8.2Z"/>
</svg>