<?xml version="1.0" encoding="UTF-8"?>
<svg id="_图层_1" data-name="图层 1" xmlns="http://www.w3.org/2000/svg" version="1.1" viewBox="0 0 200.2 200">
  <defs>
    <style>
      .cls-1 {
        fill-opacity: .4;
      }

      .cls-1, .cls-2, .cls-3 {
        fill: #fff;
      }

      .cls-1, .cls-2, .cls-3, .cls-4 {
        stroke-width: 0px;
      }

      .cls-2 {
        isolation: isolate;
        opacity: .3;
      }

      .cls-4 {
        fill: #ff822b;
      }
    </style>
  </defs>
  <path class="cls-4" d="M25,100c0,41.4,33.6,75,75,75s75-33.6,75-75S141.4,25,100,25,25,58.6,25,100Z"/>
  <path class="cls-2" d="M174.4,107.2c-2.3,24-15.9,44.7-35.3,56.8-1.3-4.3-2-9-2-13.8,0-23.6,16.7-42.7,37.3-43Z"/>
  <path class="cls-1" d="M74.7,29.3c-3.9,19.7-20.6,33.4-38.4,31,8.9-14.2,22.4-25.2,38.4-31Z"/>
  <path class="cls-3" d="M74,123.2h52.1c2.5,0,4.6-1.8,5-4.3l4.8-30.1c.4-2.6-1.4-5-4-5.5-1.6-.3-3.2.3-4.3,1.5l-5.7,6.3c-1.9,2.1-5.1,2.3-7.2.4-.5-.4-.9-1-1.2-1.5l-10.1-20.4c-.4-.9-1.1-1.6-1.9-2.1-2.4-1.5-5.5-.7-7,1.7-.1.2-.2.4-.3.6l-8.3,19.4c-.3.8-.9,1.5-1.6,2-1.4,1.1-3.2,1.4-4.9.8-.8-.3-1.5-.8-2.1-1.4l-5-5.8c-1.3-1.5-3.5-2-5.4-1.1-1.9.9-2.9,2.8-2.6,4.9l4.6,30.3c.2,1.2.8,2.3,1.7,3.1.9.8,2.1,1.2,3.3,1.2h0ZM80.5,128.3h42.2c1.8,0,2.6.9,2.6,2.6h0c0,1.8-.9,2.6-2.6,2.6h-42.2c-1.8,0-2.6-.9-2.6-2.6h0c0-1.8.9-2.6,2.6-2.6Z"/>
</svg>