<svg width="203.000000" height="188.000000" viewBox="0 0 203 188" fill="none" xmlns="http://www.w3.org/2000/svg" xmlns:xlink="http://www.w3.org/1999/xlink">
	<desc>
			Created with Pixso.
	</desc>
	<defs>
		<clipPath id="clip2_1">
			<rect id="云盘" width="203.000000" height="188.000000" fill="white" fill-opacity="0"/>
		</clipPath>
	</defs>
	<g clip-path="url(#clip2_1)">
		<path id="path" d="M177.62 140.67L158.03 28.9C156.91 21.88 151.33 16.64 144.73 16.27L58.26 16.27C51.46 16.55 45.67 21.98 44.96 29.18L26.49 140.67C25.88 142.91 25.37 145.25 25.37 147.68C25.37 160.31 35.11 170.6 47.09 170.6L155.9 170.6C167.88 170.6 177.62 160.31 177.62 147.68C177.62 135.06 177.62 143.62 177.62 140.67ZM85.15 73.6C85.15 64.16 92.46 56.4 101.5 56.4C110.53 56.4 117.84 64.06 117.84 73.6C123.93 73.6 128.7 78.66 128.7 85.02C128.7 91.38 123.93 96.43 117.84 96.43L85.26 96.43C79.17 96.43 74.39 91.38 74.39 85.02C74.39 78.66 79.06 73.6 85.15 73.6Z" fill="#587BFF" fill-opacity="0.800000" fill-rule="nonzero"/>
		<path id="path" d="M155.9 159.28L46.99 159.28C40.9 159.28 36.13 154.23 36.13 147.87C36.13 141.51 40.9 136.46 46.99 136.46L155.8 136.46C161.89 136.46 166.66 141.51 166.66 147.87C166.86 154.04 161.89 159.28 155.9 159.28ZM150.42 142.07C147.48 142.07 144.94 144.69 144.94 147.78C144.94 150.86 147.37 153.48 150.42 153.48C153.36 153.48 155.9 150.86 155.9 147.78C155.9 144.69 153.46 142.07 150.42 142.07Z" fill="#F08534" fill-opacity="0.800000" fill-rule="nonzero"/>


	</g>
</svg>
