<?xml version="1.0" encoding="UTF-8"?>
<svg id="_图层_1" data-name=" 图层 1" xmlns="http://www.w3.org/2000/svg" version="1.1" viewBox="0 0 200.2 200">
  <defs>
    <style>
      .cls-1 {
        fill-opacity: .4;
      }

      .cls-1, .cls-2, .cls-3, .cls-4 {
        stroke-width: 0px;
      }

      .cls-1, .cls-2,.cls-4 {
        fill: #fff;
      }

      .cls-2 {
        isolation: isolate;
        opacity: .3;
      }

      .cls-3 {
        fill: #a88efa;
      }
      .cls-5 {
        fill: #1AA3D8;
      }
    </style>
  </defs>
  <path class="cls-3" d="M0,100c0,55.2,44.9,100,100.2,100s100.2-44.8,100.2-100S155.5,0,100.2,0,0,44.8,0,100Z"/>
  <path class="cls-2" d="M200,110c-3.1,31.9-21.2,59.3-47.2,75.3-1.7-5.7-2.6-11.9-2.6-18.3,0-31.3,22.3-56.7,49.8-57Z"/>
  <path class="cls-1" d="M66.4,6.2c-5.2,26.2-27.5,44.5-51.4,41.3C26.9,28.6,45,13.9,66.4,6.2Z"/>
  <path class="cls-4" d="M100.7,52.2c1.2,0,2.2,0,3.3.8,1.4.9,2.4,2.3,3.3,3.8,3.8,6.6,7.8,13,11.5,19.5,5.1,8.8,10.1,17.5,15.4,26.3,3.6,6,7.1,12.2,10.7,18.2,2.2,3.9,4.7,8,7,12.2.9,1.6,1.4,3.7,1.4,5.7s-.3,3.1-1.2,4.5c-1.2,1.9-2.9,3.3-5,3.8-1.2.4-2.2.7-3.4.7h-37.5c-1.2,0-2.1-.1-3.3-.7-.8-.3-1.4-.8-2.1-1.2-.9-.9-1.6-2.4-1.4-3.8,0-.9.3-2,.8-3,.3-.9.9-1.9,1.4-2.6,2.1-3.8,4.3-7.6,6.6-11.3.8-1.2,1.3-2.4,2.4-3.4s2.4-1.9,3.8-1.9,2.4.3,3.4,1.1c1.2.7,2,1.9,2.2,3.1.5,1.6,0,3.4-.7,4.9-.8,1.6-1.8,3.3-2.4,5,0,.4-.3.9,0,1.2.3.3.7.4,1.2.4,1.2.3,2.2.1,3.4.1h15.4c.7,0,1.3-.1,1.8-.7.3-.3.3-.8.1-1.1-.3-.9-.7-1.6-1.2-2.4-11.3-19.7-22.6-39.3-34.1-59-.3-.7-.7-1.4-1.3-1.9-.3-.3-.7-.4-.9-.3-.3,0-.5.4-.7.7-.5.7-.9,1.4-1.3,2-2,3.3-3.8,6.6-5.8,9.9-11.2,19.1-22.3,38.1-33.4,57.2-.7,1.2-1.4,2.6-2.2,3.8-.7,1.1-1.6,2-2.6,2.6-1.3.8-2.9,1.1-4.3.7-1.2-.3-2.1-.9-2.9-1.6-.9-.9-1.4-2.4-1.3-3.7,0-1.4.5-2.7,1.3-3.9,6.8-11.7,13.6-23.3,20.4-35,3.6-6,7-12.2,10.5-18.2,3.6-6.1,7.1-12.2,10.7-18.3,2-3.4,4.1-6.9,6.2-10.3.7-1.1,1.4-2,2.4-2.7.8-.7,1.8-1.1,2.8-1.1h-.1v-.3Z"/>
  <path class="cls-5" d="M99.1,96.4c1.6-.3,3.4,0,4.9,1.1,1.2.8,1.8,2.2,2,3.4,0,1.1,0,2.2-.3,3.1-.3.8-.7,1.6-1.2,2.4-6.5,11.1-12.9,22.1-19.6,33.4-.8,1.4-1.6,2.7-2.6,4.2-.7.9-1.6,1.6-2.6,2.2-2.1,1.1-4.9.4-6.5-1.2-.8-.8-1.3-2-1.3-3.3s.1-2.4.7-3.5.9-2,1.6-3.1c2.9-4.9,5.7-9.9,8.6-14.7,3.8-6.8,7.9-13.4,11.9-20.2.5-.8.9-1.5,1.4-2.2.8-.8,1.8-1.5,2.9-1.6h.3Z"/>
</svg>