<?xml version="1.0" encoding="UTF-8"?>
<svg id="_图层_1" data-name="图层 1" xmlns="http://www.w3.org/2000/svg" version="1.1" viewBox="0 0 200 200">
  <defs>
    <style>
      .cls-1 {
        fill: #E8B468;
        stroke-width: 0px;
      }
      .cls-2 {
        fill: #FFDF99;
        stroke-width: 0px;
      }
    </style>
  </defs>
  <path class="cls-2" d="M40.5,40.2c2-2.8,3.9-5.4,6-7.9,1.5-2.3,3.2-4.2,5-6.1,1.7-1.9,3-3.3,3.9-4.2,1.2-1.2,2.6-2.3,3.9-3.1,1.4-.9,3.3-1.4,5.6-1.4h71.6c1.5,0,3.2.3,5,1s3.8,2.1,5.4,4.4c.9,1.2,2.1,3,3.5,4.9,1.5,1.9,2.9,3.8,4.2,5.6,1.5,2.3,3.2,4.5,4.7,7H40.5v-.2Z"/>
  <path class="cls-1" d="M175,97.9c0,4.2-1.2,7.5-3.5,10.5-2.3,2.8-5.7,4.2-9.9,4.2H39.1c-4.2,0-7.5-1.4-10.1-4.2-2.6-2.8-3.8-6.3-3.8-10.5v-27.6c0-4.2,1.1-7.7,3.3-10.7,2.3-3,5.9-4.4,10.8-4.4h121.9c5.1,0,8.6,1.4,10.7,4.4,2,3,3,6.5,3,10.7,0,0,0,27.6,0,27.6ZM112.5,83.9c0-1.7-.3-2.8-1.1-3.5s-1.7-1-2.9-1h-16.8c-1.2,0-2.3.5-3,1.4s-1.2,1.9-1.2,3.3c.2,1.7.5,3,1.2,3.7.8.7,1.7,1.2,2.9,1.2h16.7c2.7-.2,4.1-1.7,4.2-5.1ZM174.5,167.6c0,4.2-1.4,7.7-4.1,10.7-2.7,3-6.2,4.4-10.4,4.2H38.7c-3.6,0-6.8-1.4-9.5-4.4-2.9-3-4.2-7-4.2-12.1v-25.9c0-4.2,1.2-7.9,3.5-10.7s5.9-4.4,10.8-4.4h121.6c4.7,0,8.1,1.4,10.4,4.4s3.5,6.5,3.5,10.5c-.2,0-.2,27.6-.2,27.6ZM112.1,154c0-1.2-.3-2.4-1.1-3.3s-1.7-1.4-2.9-1.4h-16.8c-1.2,0-2.3.5-3,1.4s-1.2,1.9-1.2,3.3.5,2.4,1.2,3.3,1.8,1.4,3,1.4h16.7c1.2,0,2.3-.5,2.9-1.4.8-1,1.2-2.1,1.2-3.3Z"/>
</svg>
