<?xml version="1.0" encoding="UTF-8"?>
<svg id="_图层_1" data-name=" 图层 1" xmlns="http://www.w3.org/2000/svg" version="1.1" viewBox="0 0 200 200">
  <defs>
    <style>
      .cls-1 {
        fill: #587bff;
        opacity: .9;
      }

      .cls-1, .cls-2 {
        stroke-width: 0px;
      }

      .cls-2 {
        fill: #707070;
      }
    </style>
  </defs>
  <path class="cls-2" d="M167.6,92.6c-4.3,0-7.4,3.5-7.4,7.4,0,33-26.8,59.8-59.8,59.8s-59.8-26.8-59.8-59.8,26.4-59.8,59.5-59.8,7.4-3.5,7.4-7.4-3.1-7.8-7.4-7.8c-41.2,0-75,33.8-75,75s33.8,75,75,75,75-33.8,75-75-3.5-7.4-7.4-7.4h-.1Z"/>
  <path class="cls-1" d="M93.8,105.8l-1.2,2.7c-1.6,3.9,0,8.2,3.9,9.7.8.4,1.9.8,3.1.8,2.7,0,5.8-1.6,7-4.7l1.2-2.7c7.4-17.9,20.2-33,35.8-43.9l-.8,10.5c-.4,4.3,2.7,7.8,7,8.2h.4c3.9,0,7-3.1,7.4-7l1.9-24.5c.4-6.2-4.3-11.7-10.5-12l-24.5-1.9c-3.9-.4-7.8,2.7-8.2,7s2.7,7.8,7,8.2l9.7.8c-17.5,12-31.1,29.1-39.2,49h0v-.2Z"/>
</svg>