<?xml version="1.0" encoding="UTF-8"?>
<svg id="_图层_1" data-name="图层 1" xmlns="http://www.w3.org/2000/svg" version="1.1" viewBox="0 0 200 200">
  <defs>
    <style>
      .cls-1 {
        fill: #587bff;
        opacity: .9;
      }

      .cls-1, .cls-2 {
        stroke-width: 0px;
      }

      .cls-2 {
        fill: #707070;
      }
    </style>
  </defs>
  <path class="cls-2" d="M93.4,165.7h-45.4c-11.6,0-21-9.4-21-21V52.9c0-11.6,9.4-21,21-21h78.4c11.6,0,21,9.4,21,21v37.4c0,2.4-2,4.4-4.4,4.4s-4.4-2-4.4-4.4v-37.4c0-6.7-5.5-12.2-12.2-12.2H48c-6.7,0-12.2,5.5-12.2,12.2v91.8c0,6.7,5.5,12.2,12.2,12.2h45.4c2.4,0,4.4,2,4.4,4.4s-2,4.4-4.4,4.4h0Z"/>
  <path class="cls-2" d="M117.5,65.8h-60.6c-2.4,0-4.4-2-4.4-4.4s2-4.4,4.4-4.4h60.6c2.4,0,4.4,2,4.4,4.4s-2,4.4-4.4,4.4ZM117.5,90.8h-60.6c-2.4,0-4.4-2-4.4-4.4s2-4.4,4.4-4.4h60.6c2.4,0,4.4,2,4.4,4.4s-2,4.4-4.4,4.4ZM104,115.7h-47.1c-2.4,0-4.4-2-4.4-4.4s2-4.4,4.4-4.4h47.1c2.4,0,4.4,2,4.4,4.4s-2,4.4-4.4,4.4ZM92.7,140.6h-35.8c-2.4,0-4.4-2-4.4-4.4s2-4.4,4.4-4.4h35.8c2.4,0,4.4,2,4.4,4.4s-2,4.4-4.4,4.4Z"/>
  <path class="cls-1" d="M161.3,162.1h-44.8c-8.3,0-15-7.4-15-16.6s6.7-16.6,15-16.6.9,0,1.3,0c3.1-14.6,16.2-23.6,29.3-20.2,9.3,2.4,16.4,10.5,18.4,20.8,8,2.6,12.5,11.8,10.2,20.6-1.9,7.1-7.7,12-14.4,12h0ZM116.7,151.8h44.6c3.2,0,5.7-2.9,5.7-6.4s-2.6-6.4-5.8-6.3c-2.5,0-4.5-2.2-4.6-4.9-.4-9.3-7.5-16.4-15.9-15.9-8.1.4-14.4,7.8-14.4,16.8v.4c0,2.8-2,5.2-4.5,5.3-.9,0-1.7-.2-2.5-.7-2.7-1.8-6.2-.8-7.9,2.2-1.6,3-.7,6.9,2,8.7.9.6,1.9.9,2.9.9h.3Z"/>
</svg>