<?xml version="1.0" encoding="UTF-8"?>
<svg id="_图层_1" data-name="图层 1" xmlns="http://www.w3.org/2000/svg" version="1.1" viewBox="0 0 200 200">
  <defs>
    <style>
      .cls-1 {
        fill: #587bff;
        opacity: .9;
      }

      .cls-1, .cls-2 {
        stroke-width: 0px;
      }

      .cls-2 {
        fill: #707070;
      }
    </style>
  </defs>
  <path class="cls-2" d="M89.1,137.9h-36.5c-2.4,0-4.4-2-4.4-4.4s2-4.4,4.4-4.4h36.5c2.4,0,4.4,2,4.4,4.4s-2,4.4-4.4,4.4Z"/>
  <path class="cls-1" d="M138.9,175.3c-20.6,0-37.4-16.8-37.4-37.4s16.8-37.4,37.4-37.4,37.4,16.8,37.4,37.4-16.8,37.4-37.4,37.4ZM138.9,109.3c-15.8,0-28.6,12.8-28.6,28.6s12.8,28.6,28.6,28.6,28.6-12.8,28.6-28.6-12.8-28.6-28.6-28.6Z"/>
  <path class="cls-1" d="M135.9,151.7h0c-1.2,0-2.3-.5-3.1-1.3l-10.2-10.3c-1.7-1.7-1.7-4.5,0-6.2,1.7-1.7,4.5-1.7,6.2,0l7.1,7.2,17.4-17.4c1.7-1.7,4.5-1.7,6.2,0s1.7,4.5,0,6.2l-20.6,20.6c-.8.8-1.9,1.3-3.1,1.3h0Z"/>
  <path class="cls-2" d="M89.8,55c-.7-.7-1.7-1.2-2.8-1.1-1,0-2,.4-2.8,1.1l-17.5,17.5c-1.5,1.5-1.5,4,0,5.5.8.8,1.8,1.1,2.8,1.1s2-.4,2.8-1.1l10.9-10.9v37.2c0,2.2,1.7,3.9,3.9,3.9s3.9-1.7,3.9-3.9v-37.2l10.9,10.9c.8.8,1.8,1.1,2.8,1.1s2-.4,2.8-1.1c1.5-1.5,1.5-4,0-5.5l-17.5-17.5h0Z"/>
  <path class="cls-2" d="M94.6,164.6h-45.4c-11.6,0-21-9.4-21-21V51.7c0-11.6,9.4-21,21-21h78.4c11.6,0,21,9.4,21,21v37.4c0,2.4-2,4.4-4.4,4.4s-4.4-2-4.4-4.4v-37.4c0-6.7-5.5-12.2-12.2-12.2H49.2c-6.7,0-12.2,5.5-12.2,12.2v91.8c0,6.7,5.5,12.2,12.2,12.2h45.4c2.4,0,4.4,2,4.4,4.4s-2,4.4-4.4,4.4h0Z"/>
</svg>