<?xml version="1.0" encoding="UTF-8"?>
<svg id="_图层_1" data-name=" 图层 1" xmlns="http://www.w3.org/2000/svg" version="1.1" viewBox="0 0 200 200">
  <defs>
    <style>
      .cls-1 {
        fill: #587bff;
        isolation: isolate;
        opacity: .9;
      }

      .cls-1, .cls-2 {
        stroke-width: 0px;
      }

      .cls-2 {
        fill: #707070;
      }
    </style>
  </defs>
  <path class="cls-2" d="M134.6,185h-69.2c-22.3,0-40.4-20.5-40.4-45.8V60.8c0-25.3,18.1-45.8,40.4-45.8h17.3c3.2,0,5.8,2.9,5.8,6.5s-2.6,6.5-5.8,6.5h-17.3c-15.9,0-28.8,14.7-28.8,32.7v78.5c0,18.1,12.9,32.7,28.8,32.7h69.2c15.9,0,28.8-14.7,28.8-32.7v-19.6c0-3.6,2.6-6.5,5.8-6.5s5.8,2.9,5.8,6.5v19.6c0,25.3-18.1,45.8-40.4,45.8Z"/>
  <path class="cls-1" d="M128.6,15.1h-19.9c-3.6,0-6.6,3.1-6.6,6.8s2.9,6.8,6.6,6.8h19.9c8.8,0,16.9,3.6,22.8,9.4-10.4,6.1-19.8,13.9-28.2,23.3-8.4,9.3-15.8,20.2-21.9,32.3-5.2,10.3-9.3,21-12.3,32.1v.5c-.7,3.3,1.6,6.5,5,7.1h0c3.2.5,6.4-1.5,7.2-4.6,2.8-10.2,6.6-20.2,11.4-29.7,8.1-16,22.4-37.3,46-51,2.1,4.5,3.2,9.5,3.2,14.8v24c0,1.8,1.5,3.4,3.3,3.4h6.7c1.8.1,3.3-1.5,3.3-3.3v-24c0-26.4-20.8-47.9-46.5-47.9Z"/>
</svg>