<?xml version="1.0" encoding="UTF-8"?>
<svg id="_图层_1" data-name="图层 1" xmlns="http://www.w3.org/2000/svg" version="1.1" viewBox="0 0 200 200">
  <defs>
    <style>
      .cls-1 {
        fill: #37AFFA;
        opacity: .9;
      }

      .cls-1, .cls-2 {
        stroke-width: 0px;
      }

      .cls-2 {
        fill: #707070;
      }
    </style>
  </defs>
  <path class="cls-2" d="M37.5,18.8c-10.3,0-18.7,8.4-18.8,18.8v25c0,4.6,1.8,9.1,4.9,12.5-3.1,3.4-4.8,7.9-4.9,12.5v25c0,4.6,1.8,9.1,4.9,12.5-3.1,3.4-4.8,7.9-4.9,12.5v25c0,10.3,8.4,18.7,18.8,18.8h125c10.3,0,18.7-8.4,18.8-18.8v-25c0-4.6-1.8-9.1-4.9-12.5,3.1-3.4,4.8-7.9,4.9-12.5v-25c0-4.6-1.8-9.1-4.9-12.5,3.1-3.4,4.8-7.9,4.9-12.5v-25c0-10.3-8.4-18.7-18.8-18.8H37.5ZM37.5,31.2h125c3.5,0,6.2,2.8,6.2,6.2v25c0,3.5-2.8,6.2-6.2,6.2H37.5c-3.5,0-6.2-2.8-6.2-6.2v-25c0-3.5,2.8-6.2,6.2-6.2ZM37.5,81.2h125c3.5,0,6.2,2.8,6.2,6.2v25c0,3.5-2.8,6.2-6.2,6.2H37.5c-3.5,0-6.2-2.8-6.2-6.2v-25c0-3.5,2.8-6.2,6.2-6.2ZM37.5,131.2h125c3.5,0,6.2,2.8,6.2,6.2v25c0,3.5-2.8,6.2-6.2,6.2H37.5c-3.5,0-6.2-2.8-6.2-6.2v-25c0-3.5,2.8-6.2,6.2-6.2Z"/>
  <path class="cls-1" d="M50,56.2h62.5v-12.5h-62.5v12.5ZM143.8,56.2c3.5,0,6.2-2.8,6.2-6.2s-2.8-6.2-6.2-6.2-6.2,2.8-6.2,6.2,2.8,6.2,6.2,6.2ZM50,106.2h62.5v-12.5h-62.5v12.5ZM143.8,93.8c-3.5,0-6.2,2.8-6.2,6.2s2.8,6.2,6.2,6.2,6.2-2.8,6.2-6.2-2.8-6.2-6.2-6.2ZM50,156.2h62.5v-12.5h-62.5v12.5ZM143.8,143.8c-3.5,0-6.2,2.8-6.2,6.2s2.8,6.2,6.2,6.2,6.2-2.8,6.2-6.2-2.8-6.2-6.2-6.2Z"/>
</svg>