<?xml version="1.0" encoding="UTF-8"?>
<svg id="_图层_1" data-name="图层 1" xmlns="http://www.w3.org/2000/svg" version="1.1" viewBox="0 0 200 200">
  <defs>
    <style>
      .cls-1 {
        fill: #587bff;
        opacity: .7;
      }

      .cls-1, .cls-2 {
        stroke-width: 0px;
      }

      .cls-2 {
        fill: #707070;
      }
    </style>
  </defs>
  <path class="cls-1" d="M70.8,25h-22.9c-12.7,0-22.9,10.3-22.9,22.9v22.9c0,12.7,10.3,22.9,22.9,22.9h22.9c12.7,0,22.9-10.3,22.9-22.9h0v-22.9c0-12.7-10.3-22.9-22.9-22.9h0ZM47.9,37.5h22.9c5.8,0,10.4,4.7,10.4,10.4v22.9c0,5.8-4.7,10.4-10.4,10.4h-22.9c-5.8,0-10.4-4.7-10.4-10.4v-22.9c0-5.8,4.7-10.4,10.4-10.4Z"/>
  <path class="cls-2" d="M114.6,35.4h54.2c4.2,0,6.2,2.1,6.2,6.2h0c0,4.2-2.1,6.2-6.2,6.2h-54.2c-4.2,0-6.2-2.1-6.2-6.2h0c0-4.2,2.1-6.2,6.2-6.2h0Z"/>
  <path class="cls-2" d="M114.6,116.7h54.2c4.2,0,6.2,2.1,6.2,6.2h0c0,4.2-2.1,6.2-6.2,6.2h-54.2c-4.2,0-6.2-2.1-6.2-6.2h0c0-4.2,2.1-6.2,6.2-6.2h0Z"/>
  <path class="cls-2" d="M114.6,70.8h54.2c4.2,0,6.2,2.1,6.2,6.2h0c0,4.2-2.1,6.2-6.2,6.2h-54.2c-4.2,0-6.2-2.1-6.2-6.2h0c0-4.2,2.1-6.2,6.2-6.2h0Z"/>
  <path class="cls-2" d="M114.6,152.1h54.2c4.2,0,6.2,2.1,6.2,6.2h0c0,4.2-2.1,6.2-6.2,6.2h-54.2c-4.2,0-6.2-2.1-6.2-6.2h0c0-4.2,2.1-6.2,6.2-6.2h0Z"/>
  <path class="cls-2" d="M70.8,106.2h-22.9c-12.7,0-22.9,10.3-22.9,22.9v22.9c0,12.7,10.3,22.9,22.9,22.9h22.9c12.7,0,22.9-10.3,22.9-22.9v-22.9c0-12.7-10.3-22.9-22.9-22.9ZM47.9,118.8h22.9c5.8,0,10.4,4.7,10.4,10.4v22.9c0,5.8-4.7,10.4-10.4,10.4h-22.9c-5.8,0-10.4-4.7-10.4-10.4v-22.9c0-5.8,4.7-10.4,10.4-10.4Z"/>
</svg>