<svg width="80.000000" height="65.000000" viewBox="0 0 80 65" fill="none" xmlns="http://www.w3.org/2000/svg" xmlns:xlink="http://www.w3.org/1999/xlink">
	<desc>
			Created with Pixso.
	</desc>
	<defs>
		<clipPath id="clip3_17">
			<rect id="云盘-文件夹" width="80.000000" height="65.000000" fill="white" fill-opacity="0"/>
		</clipPath>
	</defs>
	<g clip-path="url(#clip3_17)">
		<g opacity="0.700000">
			<path id="path" d="M72.01 5.17L33.82 5.17L25.66 0.53C25.13 0.2 24.39 0 23.82 0L7.98 0C3.62 0 0 3.4 0 7.51L0 57.48C0 61.59 3.62 65 7.98 65L72.01 65C76.37 65 80 61.59 80 57.48L80 12.68C80 8.58 76.55 5.17 72.01 5.17ZM9.07 6.89L22.69 6.89L30.9 11.53C31.42 11.86 32.16 12.03 32.73 12.03L70.74 12.03C71.83 12.03 72.58 12.72 72.58 13.75L72.58 15.64C72.58 16.67 71.83 17.36 70.74 17.36L8.9 17.36C7.81 17.36 7.07 16.67 7.07 15.64L7.07 8.62C7.24 7.76 8.16 6.89 9.07 6.89Z" fill="#587BFF" fill-opacity="1.000000" fill-rule="nonzero"/>
		</g>
	</g>
</svg>
