<?xml version="1.0" encoding="UTF-8"?>
<svg id="_图层_1" data-name=" 图层 1" xmlns="http://www.w3.org/2000/svg" version="1.1" viewBox="0 0 200 200">
  <defs>
    <style>
      .cls-1 {
        fill: #37AFFA;
        opacity: .9;
      }

      .cls-1, .cls-2 {
        stroke-width: 0px;
      }

      .cls-2 {
        fill: #707070;
      }
    </style>
  </defs>
  <path class="cls-1" d="M38.6,38.6v40.9h40.9v-40.9h-40.9ZM79.6,93.2h-40.9c-7.5,0-13.6-6.1-13.6-13.6v-40.9c0-7.5,6.1-13.6,13.6-13.6h40.9c7.5,0,13.6,6.1,13.6,13.6v40.9c0,7.5-6.1,13.6-13.6,13.6Z"/>
  <path class="cls-2" d="M120.5,120.5v40.9h40.9v-40.9h-40.9,0ZM161.4,175h-40.9c-7.5,0-13.6-6.1-13.6-13.6v-40.9c0-7.5,6.1-13.6,13.6-13.6h40.9c7.5,0,13.6,6.1,13.6,13.6v40.9c0,7.5-6.1,13.6-13.6,13.6ZM93.2,167.1c0-3.2-2.2-6-5.3-6.6-21.2-4.3-42.9-22.3-49.5-42.3-1-3.1-4.1-5-7.3-4.6h-.2c-3.3.6-5.7,3.4-5.7,6.8v32.5c0,3.8,3.1,6.8,6.9,6.8s6.8-3.1,6.8-6.8v-7.1c11.9,14.1,28.9,24.7,46.4,28.2,3.7.7,7.3-1.8,8-5.5,0-.4,0-.8,0-1.3M175,47.1c0-3.8-3.1-6.8-6.8-6.8s-6.8,3.1-6.8,6.8v7.1c-11.9-14.1-28.9-24.7-46.4-28.2-3.7-.7-7.3,1.8-8,5.5,0,.4,0,.9,0,1.3,0,3.2,2.2,6,5.4,6.6,21.2,4.3,42.9,22.3,49.5,42.3,1,3.1,4.1,5,7.3,4.6h.2c3.3-.6,5.7-3.4,5.7-6.8v-32.5h0Z"/>
</svg>