<?xml version="1.0" encoding="UTF-8"?>
<svg id="_图层_1" data-name="图层 1" xmlns="http://www.w3.org/2000/svg" version="1.1" viewBox="0 0 221.3 200">
  <defs>
    <style>
      .cls-1 {
        fill: #37AFFA;
        opacity: .9;
      }

      .cls-1, .cls-2 {
        stroke-width: 0px;
      }

      .cls-2 {
        fill: #707070;
      }
    </style>
  </defs>
  <path class="cls-1" d="M197.5,100.3c0-16.8-4.8-33.2-13.9-47.3-48.3,2.1-85.7,43-83.6,91.3.7,15.4,5.4,30.4,13.7,43.3,46.8-2,83.7-40.6,83.8-87.4h0Z"/>
  <path class="cls-2" d="M109.9,21.8c43,0,77.8,34.8,77.8,77.8s-34.8,77.8-77.8,77.8-77.8-34.8-77.8-77.8h0c0-43,34.8-77.8,77.8-77.8M109.9,12.1c-48.4,0-87.6,39.2-87.6,87.6s39.2,87.6,87.6,87.6,87.6-39.2,87.6-87.6h0c0-48.4-39.2-87.6-87.6-87.6Z"/>
  <path class="cls-2" d="M203.7,44c-5.4-9.2-17.4-13.8-33.2-13.8-3.8,0-7.6.3-11.3.8,4.1,2.7,8,5.7,11.7,9,12.5,0,21.2,3.2,24.3,8.9,4.1,7.2.3,20-10.3,34.3-15.5,19.6-34.7,35.9-56.6,47.9-28,16.2-57.9,25.9-80,25.9s-21.5-3.2-24.8-8.9-1.8-13.4,3.1-22.8c-1.2-4.9-2-9.9-2.3-14.9-11.4,16.3-15.4,31.7-9.1,42.5,5.4,9.2,17.4,13.8,33.2,13.8,23,0,54-9.4,84.8-27.2,52-30.1,83.6-72.8,70.5-95.5Z"/>
</svg>