<?xml version="1.0" encoding="UTF-8"?>
<svg id="_图层_1" data-name=" 图层 1" xmlns="http://www.w3.org/2000/svg" version="1.1" viewBox="0 0 200 200">
  <defs>
    <style>
      .cls-1 {
        fill: #587bff;
        opacity: .7;
      }

      .cls-1, .cls-2 {
        stroke-width: 0px;
      }

      .cls-2 {
        fill: #707070;
      }
    </style>
  </defs>
  <path class="cls-2" d="M173.2,55.3l-28.5-28.5c-1.2-1.2-2.8-1.8-4.4-1.8H43.8c-10.4,0-18.8,8.4-18.8,18.8v112.4c0,10.4,8.4,18.8,18.8,18.8h112.4c10.4,0,18.8-8.4,18.8-18.8V59.7c0-1.7-.7-3.3-1.8-4.4ZM106.2,37.5v31.3h-37.5v-31.3s37.5,0,37.5,0ZM162.5,156.2c0,3.5-2.8,6.3-6.3,6.3H43.8c-3.5,0-6.3-2.8-6.3-6.3V43.8c0-3.5,2.8-6.3,6.3-6.3h12.5v37.5c0,3.4,2.8,6.2,6.2,6.2h50c3.4,0,6.2-2.8,6.2-6.2v-37.5h18.9l24.8,24.8v93.9h.1Z"/>
  <path class="cls-1" d="M140.8,120.6l-17.7-17.7c-2.4-2.4-6.4-2.4-8.8,0s-2.4,6.4,0,8.8l7,7h-59.9c-3.4,0-6.2,2.8-6.2,6.2s2.8,6.2,6.2,6.2h59.9l-7,7c-2.4,2.4-2.4,6.4,0,8.8,1.2,1.2,2.8,1.8,4.4,1.8s3.2-.6,4.4-1.8l17.7-17.7c.6-.6,1-1.3,1.4-2,.6-1.5.6-3.2,0-4.8s-.8-1.5-1.3-2.1h0v.3Z"/>
</svg>