<?xml version="1.0" encoding="UTF-8"?>
<svg id="_图层_1" data-name=" 图层 1" xmlns="http://www.w3.org/2000/svg" version="1.1" viewBox="0 0 200 200">
  <defs>
    <style>
      .cls-1 {
        fill: #587bff;
        opacity: .7;
      }

      .cls-1, .cls-2 {
        stroke-width: 0px;
      }

      .cls-2 {
        fill: #707070;
      }
    </style>
  </defs>
  <path class="cls-2" d="M131.2,63.3h-62.5c-2.8,0-5.1-2.2-5.1-5s2.2-5,5.1-5h62.5c2.8,0,5.1,2.2,5.1,5s-2.2,5-5.1,5h0ZM131.2,96h-62.5c-2.8,0-5.1-2.2-5.1-5s2.2-5,5.1-5h62.5c2.8,0,5.1,2.2,5.1,5s-2.2,5-5.1,5h0ZM96.4,128.9h-27.8c-2.8,0-5.1-2.2-5.1-5s2.2-5,5.1-5h27.8c2.8,0,5.1,2.2,5.1,5s-2.2,5-5.1,5h0Z"/>
  <path class="cls-1" d="M177.7,147.7h-24.7v-25.6c0-3.5-2.6-6.6-6.1-6.5-3.4,0-5.8,2.8-5.8,6.3v25.8h-25.7c-3.6,0-6.6,2.6-6.5,6.1,0,3.4,2.8,5.9,6.2,5.9h25.8v24.4c0,3.5,2.6,6.6,6.1,6.5,3.4,0,5.8-2.8,5.8-6.3v-24.6h24.5c3.6,0,6.6-2.6,6.5-6.1,0-3.4-2.8-5.9-6.2-5.9h.1,0Z"/>
  <path class="cls-2" d="M174.9,57.5v73.1c0,3.3-2.8,6-6.2,6s-6.3-2.7-6.3-6V57.5c0-16.7-14-30.3-31.3-30.3h-62.5c-17.2,0-31.2,13.6-31.2,30.3v85.1c0,16.7,14,30.3,31.3,30.3h50c3.5,0,6.3,2.7,6.3,6s-2.8,6-6.2,6h-50c-24.2,0-43.8-19-43.8-42.5V57.5c0-23.4,19.6-42.5,43.7-42.5h62.5c24.2,0,43.8,19,43.8,42.5h-.1Z"/>
</svg>