<?xml version="1.0" encoding="UTF-8"?>
<svg id="_图层_1" data-name="图层 1" xmlns="http://www.w3.org/2000/svg" version="1.1" viewBox="0 0 200 200">
  <defs>
    <style>
      .cls-1 {
        fill: #37AFFA;
        opacity: .9;
      }

      .cls-1, .cls-2 {
        stroke-width: 0px;
      }

      .cls-2 {
        fill: #707070;
      }
    </style>
  </defs>
  <path class="cls-1" d="M109.4,143.8h12.5v12.5h-12.5v-12.5ZM134.4,143.8h12.5v12.5h-12.5v-12.5ZM159.4,143.8h12.5v12.5h-12.5v-12.5Z"/>
  <path class="cls-2" d="M140.6,100c-27.5,0-50,22.5-50,50s22.5,50,50,50,50-22.5,50-50-22.5-50-50-50ZM140.6,187.5c-20.6,0-37.5-16.9-37.5-37.5s16.9-37.5,37.5-37.5,37.5,16.9,37.5,37.5-16.9,37.5-37.5,37.5ZM40.6,25h12.5v12.5h-12.5v-12.5ZM40.6,75h12.5v12.5h-12.5v-12.5ZM40.6,125h12.5v12.5h-12.5v-12.5Z"/>
  <path class="cls-2" d="M78.1,162.5v-12.5H24.4l-2.5-2.5v-32.5l2.5-2.5h53.7v-12.5H24.4l-2.5-2.5v-32.5l2.5-2.5h132.5l2.5,2.5v22.5h12.5v-27.5l-3.8-3.8,3.8-3.8V10l-10-10H19.4l-10,10v42.5l3.7,3.8-3.8,3.8v42.5l3.8,3.8-3.8,3.8v42.5l10,10h58.8ZM21.9,15l2.5-2.5h132.5l2.5,2.5v32.5l-2.5,2.5H24.4l-2.5-2.5V15Z"/>
</svg>