<?xml version="1.0" encoding="UTF-8"?>
<svg id="_图层_1" data-name="图层 1" xmlns="http://www.w3.org/2000/svg" version="1.1" viewBox="0 0 200 200">
  <defs>
    <style>
      .cls-1 {
        fill: #587bff;
        opacity: .9;
      }

      .cls-1, .cls-2 {
        stroke-width: 0px;
      }

      .cls-2 {
        fill: #707070;
      }
    </style>
  </defs>
  <path class="cls-2" d="M94.6,164.6h-45.4c-11.6,0-21-9.4-21-21V51.7c0-11.6,9.4-21,21-21h78.4c11.6,0,21,9.4,21,21v37.4c0,2.4-2,4.4-4.4,4.4s-4.4-2-4.4-4.4v-37.4c0-6.7-5.5-12.2-12.2-12.2H49.2c-6.7,0-12.2,5.5-12.2,12.2v91.8c0,6.7,5.5,12.2,12.2,12.2h45.4c2.4,0,4.4,2,4.4,4.4s-2,4.4-4.4,4.4h0Z"/>
  <path class="cls-2" d="M118.7,64.6h-60.6c-2.4,0-4.4-2-4.4-4.4s2-4.4,4.4-4.4h60.6c2.4,0,4.4,2,4.4,4.4s-2,4.4-4.4,4.4ZM118.7,89.6h-60.6c-2.4,0-4.4-2-4.4-4.4s2-4.4,4.4-4.4h60.6c2.4,0,4.4,2,4.4,4.4s-2,4.4-4.4,4.4ZM97.2,114.5h-39.2c-2.4,0-4.4-2-4.4-4.4s2-4.4,4.4-4.4h39.2c2.4,0,4.4,2,4.4,4.4s-2,4.4-4.4,4.4ZM88.8,139.5h-30.8c-2.4,0-4.4-2-4.4-4.4s2-4.4,4.4-4.4h30.8c2.4,0,4.4,2,4.4,4.4s-2,4.4-4.4,4.4Z"/>
  <path class="cls-1" d="M138.9,175.3c-20.6,0-37.4-16.8-37.4-37.4s16.8-37.4,37.4-37.4,37.4,16.8,37.4,37.4-16.8,37.4-37.4,37.4ZM138.9,109.3c-15.8,0-28.6,12.8-28.6,28.6s12.8,28.6,28.6,28.6,28.6-12.8,28.6-28.6-12.8-28.6-28.6-28.6Z"/>
  <path class="cls-1" d="M153.5,142.3h-14.6c-2.4,0-4.4-2-4.4-4.4h0v-19c0-2.4,2-4.4,4.4-4.4s4.4,2,4.4,4.4v14.6h10.2c2.4,0,4.4,2,4.4,4.4s-2,4.4-4.4,4.4Z"/>
</svg>