<?xml version="1.0" encoding="UTF-8"?>
<svg id="_图层_1" data-name=" 图层 1" xmlns="http://www.w3.org/2000/svg" version="1.1" viewBox="0 0 200 200">
  <defs>
    <style>
      .cls-1 {
        fill: #587bff;
        opacity: .9;
      }

      .cls-1, .cls-2 {
        stroke-width: 0px;
      }

      .cls-2 {
        fill: #707070;
      }
    </style>
  </defs>
  <path class="cls-1" d="M172.5,54.9l-22.8-21c-3.2-2.9-8.5-1-8.5,2.9v126.3c0,2.5,2.7,4.4,4.7,4.4s4.7-2.5,4.7-4.4V62.7h17.6c5.3,0,7.4-4.9,4.2-7.8h.1Z"/>
  <g id="_图层_2" data-name=" 图层 2">
    <path class="cls-2" d="M41.5,32.5h78c6,0,9,2.1,9,6.4h0c0,4.3-3,6.4-9,6.4H41.5c-6,0-9-2.1-9-6.4h0c0-4.3,3-6.4,9-6.4h0Z"/>
    <path class="cls-2" d="M41.5,115.5h78c6,0,9,2.1,9,6.4h0c0,4.3-3,6.4-9,6.4H41.5c-6,0-9-2.1-9-6.4h0c0-4.3,3-6.4,9-6.4h0Z"/>
    <path class="cls-2" d="M41.5,68.7h78c6,0,9,2.1,9,6.4h0c0,4.3-3,6.4-9,6.4H41.5c-6,0-9-2.1-9-6.4h0c0-4.3,3-6.4,9-6.4h0Z"/>
    <path class="cls-2" d="M41.5,151.7h78c6,0,9,2.1,9,6.4h0c0,4.3-3,6.4-9,6.4H41.5c-6,0-9-2.1-9-6.4h0c0-4.3,3-6.4,9-6.4h0Z"/>
  </g>
</svg>