<?xml version="1.0" encoding="UTF-8"?>
<svg id="_图层_1" data-name="图层 1" xmlns="http://www.w3.org/2000/svg" version="1.1" viewBox="0 0 200 200">
  <defs>
    <style>
      .cls-1 {
        fill: #587bff;
        opacity: .7;
        stroke-width: 0px;
      }
    </style>
  </defs>
  <path class="cls-1" d="M172.9,32.9h-87.5l-18.7-11.3c-1.2-.8-2.9-1.3-4.2-1.3H26.2c-10,0-18.3,8.3-18.3,18.3v121.7c0,10,8.3,18.3,18.3,18.3h146.7c10,0,18.3-8.3,18.3-18.3V51.2c0-10-7.9-18.3-18.3-18.3h0ZM28.7,37.1h31.2l18.8,11.3c1.2.8,2.9,1.2,4.2,1.2h87.1c2.5,0,4.2,1.7,4.2,4.2v4.6c0,2.5-1.7,4.2-4.2,4.2H28.3c-2.5,0-4.2-1.7-4.2-4.2v-17.1c.4-2.1,2.5-4.2,4.6-4.2Z"/>
</svg>