<?xml version="1.0" encoding="UTF-8"?>
<svg id="_图层_1" data-name=" 图层 1" xmlns="http://www.w3.org/2000/svg" version="1.1" viewBox="0 0 200 200">
  <defs>
    <style>
      .cls-1 {
        fill: #587bff;
        opacity: .7;
      }

      .cls-1, .cls-2 {
        stroke-width: 0px;
      }

      .cls-2 {
        fill: #707070;
      }
    </style>
  </defs>
  <path class="cls-2" d="M99.1,160.5c-16.8,0-33.1-6.6-44.7-17.7-5.6-5.4-10-11.6-13-18.6-3-7-4.5-14.3-4.5-21.7s1.8-15.3,5.1-22.4,8.1-13.5,14.1-18.8c5.8-5.2,12.6-9.2,20.2-12,3.1-1.1,4.6-4.3,3.3-7.1s-4.7-4.2-7.8-3.1c-9,3.3-17.1,8.1-24,14.2-7.2,6.4-12.9,13.9-16.8,22.4-4,8.5-6,17.5-6,26.7s1.7,17.6,5.3,25.9c3.6,8.3,8.8,15.7,15.5,22.1,8.6,8.2,19.3,14.4,31.1,17.8l-14.2,5.2c-3.1,1.1-4.6,4.3-3.3,7.1.6,1.4,1.8,2.5,3.2,3,1.4.6,3,.6,4.6,0l34.2-12.6c2.7-1,4.2-3.5,3.6-6.1-.5-2.6-3-4.5-5.8-4.5h0v.2Z"/>
  <path class="cls-1" d="M73.2,82.6v39.1c0,4.4,2.6,8.6,6.8,10.8,2.1,1.1,4.4,1.7,6.8,1.7s4.7-.6,6.8-1.7l36.8-19.6c4.2-2.2,6.8-6.3,6.8-10.8s-2.6-8.6-6.8-10.8l-36.8-19.6c-4.2-2.2-9.3-2.2-13.5,0s-6.8,6.3-6.8,10.8h-.1Z"/>
  <path class="cls-2" d="M154.2,55.1c-8.6-8.2-19.4-14.4-31.1-17.8l16.7-10.7c3.1-1.1,4.6-4.3,3.3-7.1-1.2-2.8-4.7-4.2-7.8-3.1l-36.7,18c-2.7,1-4.2,3.5-3.6,6.1s3,4.5,5.8,4.5c16.8,0,33.1,6.6,44.7,17.7,5.6,5.4,10,11.6,13,18.6s4.5,14.3,4.5,21.7-1.8,15.2-5.1,22.4c-3.3,7.1-8.1,13.5-14.1,18.8-5.8,5.2-12.6,9.2-20.2,12-3.1,1.1-4.6,4.3-3.3,7.1.6,1.4,1.8,2.5,3.2,3,1.4.6,3,.6,4.6,0,9-3.3,17.1-8.1,24-14.2,7.2-6.4,12.9-13.9,16.8-22.4,4-8.5,6-17.5,6-26.7s-1.7-17.6-5.3-25.9-8.8-15.7-15.5-22.1h0Z"/>
</svg>