<?xml version="1.0" standalone="no"?><!DOCTYPE svg PUBLIC "-//W3C//DTD SVG 1.1//EN" "http://www.w3.org/Graphics/SVG/1.1/DTD/svg11.dtd"><svg t="1720411080492" class="icon" viewBox="0 0 1024 1024" version="1.1" xmlns="http://www.w3.org/2000/svg" p-id="1689" xmlns:xlink="http://www.w3.org/1999/xlink" width="128" height="128"><path d="M816.0768 602.8288l-349.8496 266.24a83.5584 83.5584 0 0 1-50.6368 17.1008H279.3472a129.2288 129.2288 0 0 1-128.6656-129.7408V214.016a129.2288 129.2288 0 0 1 128.6656-129.7408h441.4976a129.2288 129.2288 0 0 1 128.6656 129.7408v321.1776a85.0432 85.0432 0 0 1-33.4336 67.6352z" fill="#F66462" p-id="1690"></path><path d="M931.84 697.9584l-43.1104-53.248a28.4672 28.4672 0 0 0-39.7824-4.608l-249.3952 193.1776a28.4672 28.4672 0 0 0-8.448 10.5984l-31.0784 66.56a28.928 28.928 0 0 0 3.4816 30.2592 28.3648 28.3648 0 0 0 28.3136 10.24l79.5136-16.5888a28.6208 28.6208 0 0 0 11.7248-5.4272l244.1728-189.8496a28.9792 28.9792 0 0 0 4.7104-40.96z" fill="#FFA4A4" p-id="1691"></path><path d="M615.2704 372.0704H371.7632a40.96 40.96 0 0 1 0-81.92h243.5072a40.96 40.96 0 0 1 0 81.92zM615.2704 579.9424H371.7632a40.96 40.96 0 0 1 0-81.92h243.5072a40.96 40.96 0 0 1 0 81.92z" fill="#FFFFFF" p-id="1692"></path></svg>