<?xml version="1.0" encoding="utf-8"?>
<!-- Generator: $$$/GeneralStr/196=Adobe Illustrator 27.6.0, SVG Export Plug-In . SVG Version: 6.00 Build 0)  -->
<svg version="1.1" id="图层_1" xmlns="http://www.w3.org/2000/svg" xmlns:xlink="http://www.w3.org/1999/xlink" x="0px" y="0px"
	 viewBox="0 0 128 128" style="enable-background:new 0 0 128 128;" xml:space="preserve">
<style type="text/css">
	.st0{fill:#E95C24;}
	.st1{fill:#FFFFFF;}
	.st2{fill:#F9B59D;}
</style>
<path class="st0" d="M30.9,10.8h61.7c9.1,0,16.4,7.3,16.4,16.4v71c0,9.1-7.3,16.4-16.4,16.4H30.9c-9.1,0-16.4-7.3-16.4-16.4v-71
	C14.5,18.1,21.9,10.8,30.9,10.8z"/>
<path class="st1" d="M66,66.9H36.6c-2.8,0-5.1-2.3-5.1-5.1c0-2.8,2.3-5.1,5.1-5.1H66c2.8,0,5.1,2.3,5.1,5.1
	C71.1,64.7,68.8,66.9,66,66.9z M84.7,44.2H36.6c-2.8,0-5.1-2.3-5.1-5.1c0-2.8,2.3-5.1,5.1-5.1h48.2c2.8,0,5.1,2.3,5.1,5.1
	S87.5,44.2,84.7,44.2C84.7,44.2,84.7,44.2,84.7,44.2z"/>
<path class="st2" d="M65.6,92.2c0,13.9,11.3,25.3,25.3,25.3s25.3-11.3,25.3-25.3S104.8,67,90.8,67S65.6,78.3,65.6,92.2z"/>
<path class="st1" d="M104,85.6l-9.9-8.2c-1.9-1.5-4.6-1.5-6.5,0c-10.2,8.3-10.4,8.5-10.9,9.2c-1.6,2.3-1.1,5.5,1.2,7.1
	c2,1.5,4.8,1.2,6.6-0.6c0.2-0.2,0.6-0.5,1.2-1v12.3c0,2.8,2.3,5.1,5.1,5.1s5.1-2.3,5.1-5.1c0,0,0,0,0,0V92.2l1.5,1.3
	c2.2,1.8,5.4,1.5,7.2-0.7C106.5,90.6,106.2,87.4,104,85.6L104,85.6z"/>
</svg>
