<?xml version="1.0" encoding="utf-8"?>
<!-- Generator: $$$/GeneralStr/196=Adobe Illustrator 27.6.0, SVG Export Plug-In . SVG Version: 6.00 Build 0)  -->
<svg version="1.1" id="图层_1" xmlns="http://www.w3.org/2000/svg" xmlns:xlink="http://www.w3.org/1999/xlink" x="0px" y="0px"
	 viewBox="0 0 128 128" style="enable-background:new 0 0 128 128;" xml:space="preserve">
<style type="text/css">
	.st0{fill:#6EA8AA;}
	.st1{fill:#FFFFFF;}
	.st2{fill:#A3D8D8;}
</style>
<path class="st0" d="M31.4,10.8h61.7c9.1,0,16.4,7.3,16.4,16.4v71c0,9.1-7.3,16.4-16.4,16.4H31.4c-9.1,0-16.4-7.3-16.4-16.4v-71
	C15,18.1,22.4,10.8,31.4,10.8z"/>
<path class="st1" d="M66.5,66.9H37.1c-2.8,0-5.1-2.3-5.1-5.1c0-2.8,2.3-5.1,5.1-5.1h29.4c2.8,0,5.1,2.3,5.1,5.1
	C71.6,64.7,69.3,66.9,66.5,66.9z M85.2,44.2H37.1c-2.8,0-5.1-2.3-5.1-5.1c0-2.8,2.3-5.1,5.1-5.1h48.2c2.8,0,5.1,2.3,5.1,5.1
	S88,44.2,85.2,44.2C85.2,44.2,85.2,44.2,85.2,44.2z"/>
<path class="st2" d="M66.1,92.2c0,13.9,11.3,25.3,25.2,25.3s25.3-11.3,25.3-25.2c0,0,0,0,0,0c0-13.9-11.3-25.3-25.3-25.3
	S66.1,78.3,66.1,92.2z"/>
<path class="st1" d="M105.2,91.6c-1.8-2.2-5-2.5-7.2-0.7l-1.5,1.3V80c0-2.8-2.3-5.1-5.1-5.1c-2.8,0-5.1,2.3-5.1,5.1v12.3
	c-0.6-0.5-1-0.8-1.2-1c-2-2-5.2-2-7.2-0.1c-1.8,1.8-2,4.6-0.6,6.6c0.5,0.7,0.6,0.9,10.9,9.2c1.9,1.5,4.6,1.5,6.5,0l9.9-8.2
	C106.7,97,107,93.8,105.2,91.6C105.2,91.6,105.2,91.6,105.2,91.6z"/>
</svg>
