<?xml version="1.0" encoding="UTF-8"?>
<svg id="_图层_1" data-name=" 图层 1" xmlns="http://www.w3.org/2000/svg" version="1.1" viewBox="0 0 200 200">
  <defs>
    <style>
      .cls-1 {
        fill: #6dc9ff;
      }

      .cls-1, .cls-2 {
        stroke-width: 0px;
      }

      .cls-2 {
        fill: #707070;
      }
    </style>
  </defs>
  <path class="cls-2" d="M134.6,185h-69.2c-22.3,0-40.4-20.5-40.4-45.8V60.8c0-25.3,18.1-45.8,40.4-45.8h69.2c22.3,0,40.4,20.5,40.4,45.8v78.5c0,25.3-18.1,45.8-40.4,45.8ZM65.4,28.1c-15.9,0-28.8,14.7-28.8,32.7v78.5c0,18.1,12.9,32.7,28.8,32.7h69.2c15.9,0,28.8-14.7,28.8-32.7V60.8c0-18.1-12.9-32.7-28.8-32.7h-69.2Z"/>
  <path class="cls-2" d="M68.8,142.5h65.6c1.7,0,3.1,1.4,3.1,3.1v6.2c0,1.7-1.4,3.1-3.1,3.1h-65.6c-3.5,0-6.2-2.8-6.2-6.2s2.8-6.2,6.2-6.2h0Z"/>
  <path class="cls-1" d="M135.8,104.1l-32.3,27.5c-2.1,1.8-4.8,1.8-6.9,0l-32.3-27.5c-2.9-2.4-3.6-7.4-1.7-11.1h0c1.9-3.7,5.8-4.6,8.7-2.2h0l20.2,17.2c.7.6,1.7.4,2.2-.5.2-.4.3-.8.3-1.2v-61.3c0-4.5,2.8-7.9,6.2-7.9s6.2,3.6,6.2,7.9v61.3c0,1.2.7,2,1.6,2s.6,0,.9-.4l20.2-17.2c2.9-2.4,6.8-1.4,8.7,2.2h0c1.9,3.7,1.1,8.7-1.7,11.1h-.3,0Z"/>
</svg>