<?xml version="1.0" encoding="UTF-8"?>
<svg id="_图层_1" data-name=" 图层 1" xmlns="http://www.w3.org/2000/svg" version="1.1" viewBox="0 0 200 200">
  <defs>
    <style>
      .cls-1 {
        fill: #6dc9ff;
      }

      .cls-1, .cls-2 {
        stroke-width: 0px;
      }

      .cls-2 {
        fill: #707070;
      }
    </style>
  </defs>
  <path class="cls-2" d="M131.4,185h-62.5c-24.2,0-43.8-19-43.8-42.5V57.5c0-23.5,19.6-42.5,43.8-42.5h50c3.5,0,6.2,2.7,6.2,6s-2.8,6-6.2,6h-50c-17.2,0-31.2,13.6-31.2,30.3v85c0,16.7,14,30.3,31.2,30.3h62.5c17.2,0,31.2-13.6,31.2-30.3v-73c0-3.4,2.8-6,6.2-6s6.2,2.7,6.2,6v73c0,23.5-19.6,42.5-43.8,42.5h.2Z"/>
  <path class="cls-1" d="M87.5,106.2c-3.5,0-6.3-2.8-6.3-6.2s.7-3.2,1.8-4.4L164.3,14.3c2.4-2.4,6.4-2.4,8.8,0,2.4,2.4,2.4,6.4,0,8.8l-81.2,81.3c-1.2,1.2-2.8,1.8-4.4,1.8Z"/>
  <path class="cls-2" d="M134.4,137.5h-65.6c-3.5,0-6.2-2.8-6.2-6.2s2.8-6.2,6.2-6.2h65.6c1.7,0,3.1,1.4,3.1,3.1v6.2c0,1.7-1.4,3.1-3.1,3.1h0Z"/>
</svg>