<?xml version="1.0" standalone="no"?><!DOCTYPE svg PUBLIC "-//W3C//DTD SVG 1.1//EN" "http://www.w3.org/Graphics/SVG/1.1/DTD/svg11.dtd"><svg t="1720332264473" class="icon" viewBox="0 0 1024 1024" version="1.1" xmlns="http://www.w3.org/2000/svg" p-id="21099" data-spm-anchor-id="a313x.collections_detail.0.i40.2d403a81HH9pmD" xmlns:xlink="http://www.w3.org/1999/xlink" width="200" height="200"><path d="M638.2592 641.1776m-179.6608 0a179.6608 179.6608 0 1 0 359.3216 0 179.6608 179.6608 0 1 0-359.3216 0Z" fill="#6dc9ff" p-id="21100" data-spm-anchor-id="a313x.collections_detail.0.i39.2d403a81HH9pmD" class=""></path><path d="M754.176 922.2144H272.1792c-92.928 0-168.4992-75.5712-168.4992-168.4992V450.9184c0-52.4288 24.9856-102.656 66.7648-134.2976l240.9984-182.528c59.904-45.3632 143.5648-45.3632 203.4688 0l240.9984 182.528c41.8304 31.6416 66.7648 81.8688 66.7648 134.2976v302.7968c0 92.928-75.5712 168.4992-168.4992 168.4992zM513.1776 171.6736c-20.6336 0-41.216 6.5024-58.4704 19.5584L213.76 373.76c-24.0128 18.176-38.3488 47.0528-38.3488 77.1584v302.7968c0 53.4016 43.4176 96.8192 96.8192 96.8192h481.9968c53.4016 0 96.8192-43.4176 96.8192-96.8192V450.9184c0-30.1568-14.336-58.9824-38.3488-77.1584l-240.9984-182.528c-17.2544-13.056-37.888-19.5584-58.5216-19.5584z" fill="#707070" p-id="21101" data-spm-anchor-id="a313x.collections_detail.0.i37.2d403a81HH9pmD" class="selected"></path><path d="M649.8816 756.6848H376.5248c-19.8144 0-35.84-16.0256-35.84-35.84s16.0256-35.84 35.84-35.84h273.3568c19.8144 0 35.84 16.0256 35.84 35.84s-16.0256 35.84-35.84 35.84z" fill="#707070" p-id="21102" data-spm-anchor-id="a313x.collections_detail.0.i38.2d403a81HH9pmD" class="selected"></path></svg>