<?xml version="1.0" encoding="UTF-8"?>
<svg id="_图层_1" data-name="图层 1" xmlns="http://www.w3.org/2000/svg" version="1.1" viewBox="0 0 222.1 200">
  <defs>
    <style>
      .cls-1 {
        fill: #6dc9ff;
      }

      .cls-1, .cls-2 {
        stroke-width: 0px;
      }

      .cls-2 {
        fill: #707070;
      }
    </style>
  </defs>
  <path class="cls-2" d="M141.1,133.2v18.6c0,4.8-4,8.8-8.9,8.8H45.9c-4.9,0-8.9-3.9-8.9-8.8,0,0,0,0,0,0v-85.2c0-4.8,4-8.8,8.9-8.8h21.1v-14.4h-21.1c-12.9,0-23.4,10.3-23.4,23.1v85.2c0,12.8,10.5,23.2,23.4,23.2h86.3c12.9,0,23.4-10.4,23.4-23.2v-18.6h-14.6Z"/>
  <path class="cls-1" d="M101.3,25h57c10.6,0,19.2,8.5,19.2,18.9v56.4c0,10.5-8.6,18.9-19.2,18.9h-57c-10.6,0-19.2-8.5-19.2-18.9v-56.4c0-10.5,8.6-18.9,19.2-18.9ZM101.3,39.4c-2.6,0-4.6,2.1-4.6,4.6v56.4c0,2.5,2.1,4.6,4.6,4.6h57c2.6,0,4.6-2,4.6-4.6v-56.4c0-2.5-2.1-4.6-4.6-4.6h-57Z"/>
</svg>