<?xml version="1.0" encoding="UTF-8"?>
<svg id="_图层_1" data-name=" 图层 1" xmlns="http://www.w3.org/2000/svg" version="1.1" viewBox="0 0 200.2 200">
  <defs>
    <style>
      .cls-1 {
        fill: #f08534;
      }

      .cls-1, .cls-2 {
        stroke-width: 0px;
      }

      .cls-2 {
        fill: #707070;
      }
    </style>
  </defs>
  <path class="cls-1" d="M134.8,164.5c-1.1,0-2.1-.6-2.8-1.4-.9-1.2-3.9-4.3-6.3-4.3s-5.4,3-6.3,4.3c-.7.9-1.7,1.4-2.8,1.4s-1.1-.2-1.4-.4l-7.3-4.8c-1.4-1-1.9-3.2-1.2-5,0,0,.7-1.8.7-3.4,0-5-3.5-9.1-7.8-9.1h-.3c-1.2,0-2.3-1.2-2.6-3.2,0-.2-.7-3.8-.7-6.8s.5-6.6.7-6.8c.3-2,1.4-3.2,2.6-3.2h.3c4.4,0,7.8-4,7.8-9.1s-.7-3.4-.7-3.4c-.7-1.8-.2-3.8,1.2-5l7.8-5c.5-.2.9-.4,1.4-.4,1.1,0,2.1.4,2.8,1.4.9,1.2,3.9,4,6.3,4s5.3-2.8,6.1-4c.7-.8,1.7-1.4,2.8-1.4s1.1.2,1.4.4l7.5,4.8c1.4,1,1.9,3.2,1.2,5,0,0-.7,1.8-.7,3.4,0,5,3.5,9.1,7.8,9.1h.3c1.2,0,2.3,1.2,2.6,3.2,0,.2.7,3.8.7,6.8s-.5,6.6-.7,6.8c-.3,2-1.4,3.2-2.6,3.2h-.3c-4.4,0-7.8,4-7.8,9.1s.7,3.4.7,3.4c.7,1.8.2,3.8-1.2,5l-7.7,4.8c-.5.4-1.1.6-1.6.6h0ZM134.6,160.2h.2l7.2-4.6c-.2-.4-1.1-2.7-1.1-5,0-7,4.7-12.7,10.9-13.1,0-.6.5-3.6.5-6.1s-.5-5.4-.5-6.1c-5.9-.4-10.9-6.1-10.9-13.1s.9-4.6,1.1-5l-7-4.5h-.3c-.2.2-1.2,1.4-2.6,2.7-2.1,1.8-4.2,2.7-6.1,2.7s-4-1-6.1-2.7c-1.4-1.2-2.5-2.5-2.6-2.7h-.3l-7.3,4.6c.2.4,1.1,2.7,1.1,5,0,7-4.7,12.7-10.9,13.1,0,.6-.5,3.6-.5,6.1s.5,5.4.5,6.1c5.9.4,10.9,6.1,10.9,13.1s-.9,4.6-1.1,5l7,4.5h.2c.2-.2,1.2-1.4,2.6-2.7,2.3-1.8,4.4-2.8,6.3-2.8s4,1,6.3,2.8c1.6,1.2,2.6,2.7,2.8,2.7h0ZM125.7,143.7c-5.8,0-10.5-5.4-10.5-12.1s4.7-12.1,10.5-12.1,10.5,5.4,10.5,12.1c-.2,6.6-4.7,12.1-10.5,12.1ZM125.7,123.6c-3.9,0-6.8,3.6-6.8,7.9s3.1,7.9,6.8,7.9,6.8-3.6,6.8-7.9-3.1-7.9-6.8-7.9Z"/>
  <path class="cls-1" d="M48.7,95.2h18.7v9.7h-18.7v-9.7ZM76.7,95.2h18.7v9.7h-18.7v-9.7Z"/>
  <path class="cls-2" d="M92.8,116.1h-48.8v48.4h8.4v-38.7h36.9c.5-3.6,1.7-6.8,3.5-9.7ZM155.9,35.5h-8.4v38.7H52.4v-38.7h-8.4v48.4h112v-48.4Z"/>
</svg>