<?xml version="1.0" standalone="no"?><!DOCTYPE svg PUBLIC "-//W3C//DTD SVG 1.1//EN" "http://www.w3.org/Graphics/SVG/1.1/DTD/svg11.dtd"><svg t="1720332250174" class="icon" viewBox="0 0 1024 1024" version="1.1" xmlns="http://www.w3.org/2000/svg" p-id="20822" xmlns:xlink="http://www.w3.org/1999/xlink" width="200" height="200"><path d="M591.4624 566.4768m-167.9872 0a167.9872 167.9872 0 1 0 335.9744 0 167.9872 167.9872 0 1 0-335.9744 0Z" fill="#6dc9ff" p-id="20823" data-spm-anchor-id="a313x.collections_detail.0.i34.2d403a81HH9pmD" class="selected"></path><path d="M900.3008 850.2784l-131.9424-127.488c58.5728-65.4336 94.3104-151.7568 94.3104-246.272 0-203.776-165.7856-369.5616-369.5616-369.5616S123.4944 272.7424 123.4944 476.5184s165.7856 369.5616 369.5616 369.5616c83.456 0 160.512-27.8528 222.464-74.7008l134.9632 130.4064a35.7888 35.7888 0 0 0 24.8832 10.0864c9.3696 0 18.7392-3.6352 25.7536-10.9568 13.824-14.1824 13.4144-36.864-0.8192-50.6368z m-705.1264-373.76c0-164.2496 133.632-297.8816 297.8816-297.8816s297.8816 133.632 297.8816 297.8816-133.632 297.8816-297.8816 297.8816-297.8816-133.632-297.8816-297.8816z" fill="#707070" p-id="20824" data-spm-anchor-id="a313x.collections_detail.0.i33.2d403a81HH9pmD" class=""></path></svg>