<?xml version="1.0" encoding="UTF-8"?>
<svg id="_图层_1" data-name="图层 1" xmlns="http://www.w3.org/2000/svg" version="1.1" viewBox="0 0 200 200">
  <defs>
    <style>
      .cls-1 {
        fill: #6dc9ff;
      }

      .cls-1, .cls-2 {
        stroke-width: 0px;
      }

      .cls-2 {
        fill: #707070;
      }
    </style>
  </defs>
  <path class="cls-2" d="M156.2,25H43.8c-10.3,0-18.8,8.4-18.8,18.8v112.5c0,10.3,8.4,18.8,18.8,18.8h112.5c10.3,0,18.8-8.4,18.8-18.8V43.8c0-10.3-8.4-18.8-18.8-18.8ZM165.6,151.6c0,7.8-6.3,14.1-14.1,14.1H48.4c-7.8,0-14.1-6.3-14.1-14.1V48.4c0-7.8,6.3-14.1,14.1-14.1h103.1c7.8,0,14.1,6.3,14.1,14.1v103.1Z"/>
  <path class="cls-1" d="M142.2,62.5h-28.1c-2.6,0-4.7-2.1-4.7-4.7s2.1-4.7,4.7-4.7h28.1c2.6,0,4.7,2.1,4.7,4.7s-2.1,4.7-4.7,4.7ZM142.2,90.6h-28.1c-2.6,0-4.7-2.1-4.7-4.7s2.1-4.7,4.7-4.7h28.1c2.6,0,4.7,2.1,4.7,4.7s-2.1,4.7-4.7,4.7ZM142.2,118.8H57.8c-2.6,0-4.7-2.1-4.7-4.7s2.1-4.7,4.7-4.7h84.4c2.6,0,4.7,2.1,4.7,4.7s-2.1,4.7-4.7,4.7ZM142.2,146.9H57.8c-2.6,0-4.7-2.1-4.7-4.7s2.1-4.7,4.7-4.7h84.4c2.6,0,4.7,2.1,4.7,4.7s-2.1,4.7-4.7,4.7ZM90.6,62.5c0-5.2-4.2-9.4-9.4-9.4h-18.8c-5.2,0-9.4,4.2-9.4,9.4v18.8c0,5.2,4.2,9.4,9.4,9.4h18.8c5.2,0,9.4-4.2,9.4-9.4v-18.8ZM81.2,76.6c0,2.6-2.1,4.7-4.7,4.7h-9.4c-2.6,0-4.7-2.1-4.7-4.7v-9.4c0-2.6,2.1-4.7,4.7-4.7h9.4c2.6,0,4.7,2.1,4.7,4.7v9.4Z"/>
</svg>