<?xml version="1.0" standalone="no"?><!DOCTYPE svg PUBLIC "-//W3C//DTD SVG 1.1//EN" "http://www.w3.org/Graphics/SVG/1.1/DTD/svg11.dtd"><svg t="1720334392083" class="icon" viewBox="0 0 1024 1024" version="1.1" xmlns="http://www.w3.org/2000/svg" p-id="60404" data-spm-anchor-id="a313x.search_index.0.i6.60803a81QRk9bV" xmlns:xlink="http://www.w3.org/1999/xlink" width="200" height="200"><path d="M590.3872 619.6736m-212.7872 0a212.7872 212.7872 0 1 0 425.5744 0 212.7872 212.7872 0 1 0-425.5744 0Z" fill="#6dc9ff" p-id="60405" data-spm-anchor-id="a313x.search_index.0.i8.60803a81QRk9bV" class=""></path><path d="M659.968 899.0208H367.5648c-46.4896 0-89.8048-25.0368-113.0496-65.28l-146.2272-253.2352c-23.2448-40.2432-23.2448-90.3168 0-130.56L254.464 196.6592c23.2448-40.2944 66.56-65.28 113.0496-65.28h292.4544c46.4896 0 89.8048 25.0368 113.1008 65.28l146.2272 253.2352c23.2448 40.2944 23.2448 90.3168 0 130.56l-146.2272 253.2352c-23.2448 40.2944-66.56 65.3312-113.1008 65.3312zM367.5648 182.5792c-28.2624 0-54.6304 15.2064-68.7104 39.68L152.6272 475.4944a79.58016 79.58016 0 0 0 0 79.36l146.2272 253.2352c14.1312 24.4736 40.448 39.68 68.7104 39.68h292.4544c28.2624 0 54.6304-15.2064 68.7616-39.68l146.2272-253.2352a79.58016 79.58016 0 0 0 0-79.36l-146.2272-253.2352a79.6416 79.6416 0 0 0-68.7616-39.68H367.5648z" fill="#707070" p-id="60406" data-spm-anchor-id="a313x.search_index.0.i7.60803a81QRk9bV" class=""></path><path d="M513.792 675.4304c-88.3712 0-160.256-71.8848-160.256-160.256s71.8848-160.256 160.256-160.256 160.256 71.8848 160.256 160.256-71.8848 160.256-160.256 160.256z m0-269.312c-60.16 0-109.056 48.896-109.056 109.056s48.896 109.056 109.056 109.056 109.056-48.896 109.056-109.056-48.9472-109.056-109.056-109.056z" fill="#707070" p-id="60407" data-spm-anchor-id="a313x.search_index.0.i5.60803a81QRk9bV" class=""></path></svg>