<?xml version="1.0" encoding="UTF-8"?>
<svg id="_图层_1" data-name="图层 1" xmlns="http://www.w3.org/2000/svg" version="1.1" viewBox="0 0 200 200">
  <defs>
    <style>
      .cls-1 {
        fill: #f2b259;
      }

      .cls-1, .cls-2 {
        stroke-width: 0px;
      }

      .cls-2 {
        fill: #707070;
      }
    </style>
  </defs>
  <path class="cls-2" d="M133.5,168h-66.3c-14.6,0-26.5-12.9-26.5-28.6v-2.6c0-15.8,11.9-28.6,26.5-28.6h66.3c14.6,0,26.5,12.9,26.5,28.6v2.6c0,15.8-11.9,28.6-26.5,28.6ZM67.1,114.1c-11.5,0-21,10.2-21,22.6v2.6c0,12.5,9.4,22.6,21,22.6h66.3c11.5,0,21-10.2,21-22.6v-2.6c0-12.5-9.4-22.6-21-22.6h-66.3ZM132.8,91.9h-66.3c-14.6,0-26.5-12.8-26.5-28.6v-2.6c0-15.8,11.9-28.6,26.5-28.6h66.3c14.6,0,26.5,12.8,26.5,28.6v2.6c0,15.8-11.9,28.6-26.5,28.6ZM66.4,38c-11.5,0-21,10.2-21,22.6v2.6c0,12.5,9.4,22.6,21,22.6h66.3c11.5,0,21-10.2,21-22.6v-2.6c0-12.5-9.4-22.6-21-22.6,0,0-66.3,0-66.3,0Z"/>
  <path class="cls-2" d="M115.4,61.9c0,8.9,6.6,16,14.8,16,8.2,0,14.9-7.2,14.9-16h0c0-8.9-6.6-16.1-14.8-16.1s-14.9,7.2-14.9,16h0Z"/>
  <path class="cls-1" d="M55.8,138.3c0,8.9,6.6,16,14.8,16,8.2,0,14.9-7.2,14.9-16h0c0-8.9-6.6-16-14.8-16-8.2,0-14.8,7.2-14.8,16,0,0,0,0,0,0Z"/>
</svg>