<?xml version="1.0" encoding="UTF-8"?>
<svg id="_图层_1" data-name="图层 1" xmlns="http://www.w3.org/2000/svg" version="1.1" viewBox="0 0 200 200">
  <defs>
    <style>
      .cls-1 {
        fill: #f08534;
      }

      .cls-1, .cls-2, .cls-3 {
        stroke-width: 0px;
      }

      .cls-2 {
        fill: #707070;
      }

      .cls-3 {
        fill: #fff;
      }
    </style>
  </defs>
  <path class="cls-2" d="M87.5,144.9l4.6,11.3-8.3,3.5-4.6-11.3c-4.6,1.3-9.5,1.3-14.2,0l-4.6,11.3-8.3-3.5,4.6-11.3c-4.1-2.5-7.5-5.9-10-10l-11.2,4.7-3.5-8.4,11.2-4.7c-1.2-4.7-1.2-9.6,0-14.2l-11.2-4.7,3.4-8.4,11.2,4.7c2.5-4.1,6-7.6,10.1-10l-4.6-11.3,8.3-3.5,4.6,11.3c4.6-1.3,9.5-1.3,14.1,0l4.6-11.3,8.3,3.5-4.6,11.3c3.9,2.4,7.1,5.6,9.6,9.5-2.2,2.7-4.1,5.6-5.6,8.7-4-10.8-16-16.2-26.7-12.2-10.7,4-16.2,16.1-12.1,26.9s16,16.2,26.7,12.2c2.9-1.1,5.5-2.8,7.7-5.1.2,3.4.7,6.8,1.7,10.1-.4.3-.8.7-1.2,1h0ZM108.6,76.2l-6.7,6.8,6.4,6.4,6.7-6.8c2.4,1.6,5.1,2.7,7.9,3.3v1.4c3-.6,6-.9,9-.9v-.5c2.8-.6,5.5-1.7,7.9-3.3l6.3,6.3.7.2,6.1-6.2-6.7-6.8c1.6-2.4,2.7-5.1,3.3-7.9h9.5v-9.1h-9.5c-.6-2.8-1.7-5.5-3.3-7.9l6.7-6.8-6.4-6.4-6.7,6.8c-2.4-1.6-5.1-2.7-7.9-3.3v-9.5h-9v9.5c-2.8.6-5.5,1.7-7.9,3.3l-6.7-6.8-6.4,6.4,6.7,6.8c-1.6,2.4-2.7,5.1-3.3,7.9h-9.5v9.1h9.5c.6,2.8,1.7,5.5,3.3,7.9h0ZM127.4,50.1c7.5,0,13.5,6.1,13.5,13.6s-6.1,13.6-13.5,13.6-13.5-6.1-13.5-13.6,6.1-13.6,13.5-13.6Z"/>
  <path class="cls-1" d="M168,131.7c0,20-16.2,36.3-36.1,36.3s-36.1-16.2-36.1-36.3,16.2-36.3,36.1-36.3,36.1,16.2,36.1,36.3Z"/>
  <path class="cls-3" d="M151.8,124.2l-21.3,21.4h-6.4l-12.1-12.5,6.4-6.3,8.9,9.2,18.1-18.2,6.4,6.4Z"/>
</svg>