<?xml version="1.0" encoding="UTF-8"?>
<svg id="_图层_1" data-name=" 图层 1" xmlns="http://www.w3.org/2000/svg" version="1.1" viewBox="0 0 200 200">
  <defs>
    <style>
      .cls-1 {
        fill: #6dc9ff;
      }

      .cls-1, .cls-2 {
        stroke-width: 0px;
      }

      .cls-2 {
        fill: #707070;
      }
    </style>
  </defs>
  <path class="cls-2" d="M134.6,185h-69.2c-22.3,0-40.4-20.5-40.4-45.8V60.8c0-25.3,18.1-45.8,40.4-45.8h17.3c3.2,0,5.8,2.9,5.8,6.5s-2.6,6.5-5.8,6.5h-17.3c-15.9,0-28.8,14.7-28.8,32.7v78.5c0,18.1,12.9,32.7,28.8,32.7h69.2c15.9,0,28.8-14.7,28.8-32.7v-19.6c0-3.6,2.6-6.5,5.8-6.5s5.8,2.9,5.8,6.5v19.6c0,25.3-18.1,45.8-40.4,45.8Z"/>
  <path class="cls-1" d="M94,133.4c-3.4-.6-5.7-3.8-5-7.1,0-.2,0-.3,0-.5,3-11.1,7.1-21.8,12.3-32.1,6.1-12.1,13.5-23,21.9-32.3,10.6-11.8,22.8-21.1,36.4-27.7l5.6,10.9c-27.5,13.3-43.8,37-52.6,54.5-4.8,9.5-8.6,19.5-11.4,29.7-.8,3.1-4,5.1-7.2,4.5h0Z"/>
  <path class="cls-1" d="M171.7,90.3h-6.6c-1.8,0-3.3-1.6-3.3-3.4v-24c0-18.9-14.9-34.2-33.2-34.2h-19.9c-3.7,0-6.6-3.1-6.6-6.8s3-6.8,6.6-6.8h19.9c25.7,0,46.5,21.5,46.5,47.9v24c0,1.8-1.5,3.4-3.3,3.4h0Z"/>
</svg>