<?xml version="1.0" standalone="no"?><!DOCTYPE svg PUBLIC "-//W3C//DTD SVG 1.1//EN" "http://www.w3.org/Graphics/SVG/1.1/DTD/svg11.dtd"><svg t="1720332297162" class="icon" viewBox="0 0 1024 1024" version="1.1" xmlns="http://www.w3.org/2000/svg" p-id="21429" xmlns:xlink="http://www.w3.org/1999/xlink" width="200" height="200"><path d="M597.6576 652.1344m-179.0976 0a179.0976 179.0976 0 1 0 358.1952 0 179.0976 179.0976 0 1 0-358.1952 0Z" fill="#FF9900" p-id="21430" data-spm-anchor-id="a313x.collections_detail.0.i45.2d403a81HH9pmD" class="selected"></path><path d="M517.12 441.9584a102.7584 102.7584 0 1 1 102.4-102.7584 102.8608 102.8608 0 0 1-102.4 102.7584z m0-133.8368a31.0784 31.0784 0 1 0 30.72 31.0784 31.1296 31.1296 0 0 0-30.72-31.0784zM517.12 776.2944a102.7584 102.7584 0 1 1 102.4-102.7584 102.8608 102.8608 0 0 1-102.4 102.7584z m0-133.8368a31.0784 31.0784 0 1 0 31.1296 31.0784 31.1296 31.1296 0 0 0-31.1296-31.0784zM684.0832 609.28a102.7584 102.7584 0 1 1 102.8096-102.912 102.8608 102.8608 0 0 1-102.8096 102.912z m0-133.8368a31.0784 31.0784 0 1 0 31.1296 31.0784 31.1296 31.1296 0 0 0-31.1296-31.232zM349.7472 609.28a102.7584 102.7584 0 1 1 102.8096-102.912A102.8608 102.8608 0 0 1 349.7472 609.28z m0-133.8368a31.0784 31.0784 0 1 0 31.1296 31.0784 31.1296 31.1296 0 0 0-31.1296-31.232z" fill="#707070" p-id="21431" data-spm-anchor-id="a313x.collections_detail.0.i44.2d403a81HH9pmD" class=""></path><path d="M892.5696 848.1792h-143.9232a411.1872 411.1872 0 1 0-231.7312 71.68h375.6544a35.84 35.84 0 0 0 0-71.68zM177.152 508.416a339.8144 339.8144 0 1 1 339.968 339.7632A340.1728 340.1728 0 0 1 177.152 508.416z" fill="#707070" p-id="21432" data-spm-anchor-id="a313x.collections_detail.0.i43.2d403a81HH9pmD" class=""></path></svg>