<?xml version="1.0" standalone="no"?><!DOCTYPE svg PUBLIC "-//W3C//DTD SVG 1.1//EN" "http://www.w3.org/Graphics/SVG/1.1/DTD/svg11.dtd"><svg t="1720350902062" class="icon" viewBox="0 0 1024 1024" version="1.1" xmlns="http://www.w3.org/2000/svg" p-id="8080" xmlns:xlink="http://www.w3.org/1999/xlink" width="200" height="200"><path d="M810.666667 254.72h-135.893334l83.2-99.2a42.666667 42.666667 0 0 0-65.28-55.04l-123.52 147.2a36.693333 36.693333 0 0 0-4.693333 7.04h-104.96a36.693333 36.693333 0 0 0-4.693333-7.04l-123.52-147.2a42.666667 42.666667 0 0 0-65.28 55.04l83.2 99.2H213.333333a128 128 0 0 0-128 128v426.666667a128 128 0 0 0 128 128h597.333334a128 128 0 0 0 128-128v-426.666667a128 128 0 0 0-128-128z m42.666666 554.666667a42.666667 42.666667 0 0 1-42.666666 42.666666H213.333333a42.666667 42.666667 0 0 1-42.666666-42.666666v-426.666667a42.666667 42.666667 0 0 1 42.666666-42.666667h597.333334a42.666667 42.666667 0 0 1 42.666666 42.666667z" p-id="8081" data-spm-anchor-id="a313x.search_index.0.i20.2a7d3a81bIzHgb" class="" fill="#707070"></path><path d="M472.32 473.6a34.56 34.56 0 0 0-28.373333-4.266667 21.333333 21.333333 0 0 0-17.28 17.28v218.88a21.333333 21.333333 0 0 0 17.493333 17.28 33.92 33.92 0 0 0 28.16-4.266666l159.786667-109.44a14.72 14.72 0 0 0 0-26.026667z" p-id="8082" data-spm-anchor-id="a313x.search_index.0.i21.2a7d3a81bIzHgb" class="" fill="#2EC99D"></path></svg>