<?xml version="1.0" standalone="no"?><!DOCTYPE svg PUBLIC "-//W3C//DTD SVG 1.1//EN" "http://www.w3.org/Graphics/SVG/1.1/DTD/svg11.dtd"><svg t="1720353597205" class="icon" viewBox="0 0 1024 1024" version="1.1" xmlns="http://www.w3.org/2000/svg" p-id="2276" data-spm-anchor-id="a313x.search_index.0.i2.5ec83a81hmqXLy" xmlns:xlink="http://www.w3.org/1999/xlink" width="200" height="200"><path d="M737.024 912.896H294.2976c-71.5776 0-129.7408-53.3504-129.7408-118.9888V325.376h81.92v468.5312c0 20.0704 21.9136 37.0688 47.8208 37.0688h442.7264c25.9584 0 47.8208-16.9984 47.8208-37.0688V325.376h81.92v468.5312c0 65.6384-58.2144 118.9888-129.7408 118.9888z" fill="#2EC99D" p-id="2277" data-spm-anchor-id="a313x.search_index.0.i1.5ec83a81hmqXLy" class=""></path><path d="M903.4752 242.8416H644.096c-22.6304 0-40.96-18.3296-40.96-40.96v-35.1232H428.1344v35.1232c0 22.6304-18.3296 40.96-40.96 40.96H127.8464c-22.6304 0-40.96-18.3296-40.96-40.96s18.3296-40.96 40.96-40.96h218.4192c0.768-42.0864 36.1984-76.0832 79.6672-76.0832h179.5072c43.4688 0 78.8992 33.9968 79.6672 76.0832h218.4192c22.6304 0 40.96 18.3296 40.96 40.96s-18.3808 40.96-41.0112 40.96z" fill="#707070" p-id="2278" data-spm-anchor-id="a313x.search_index.0.i0.5ec83a81hmqXLy" class=""></path><path d="M361.4208 325.376h308.48v413.6448H361.4208z" fill="#D9FFEC" p-id="2279" data-spm-anchor-id="a313x.search_index.0.i4.5ec83a81hmqXLy" class=""></path></svg>