<?xml version="1.0" encoding="UTF-8"?>
<svg id="_图层_1" data-name=" 图层 1" xmlns="http://www.w3.org/2000/svg" version="1.1" viewBox="0 0 200 200">
  <defs>
    <style>
      .cls-1 {
        fill: #feb833;
      }

      .cls-1, .cls-2 {
        stroke-width: 0px;
      }

      .cls-2 {
        fill: #2ec99d;
      }
    </style>
  </defs>
  <g id="_图层_2" data-name=" 图层 2">
    <path class="cls-2" d="M131.5,102.6c.1-2.3-1.4-4.4-3.9-5.3l-21.1-18.1c0,0,0,0,0,0-2.5-2.1-6.2-1.9-8.6.3-2.4,2.2-2.1,5.8.4,7.8l18.3,15.8-31.2,29.7h0c0-.1,0-.1,0-.1-2.2,2.2-2.2,5.8.2,7.8,2.5,2.1,6.4,2,8.6-.2l33.9-32.1c2.5-1,3.9-3.1,3.6-5.4h0Z"/>
  </g>
  <g id="_图层_3" data-name=" 图层 3">
    <path class="cls-1" d="M77,70.9l9.2,7.2c2.7,1.9,6.2,1.5,8-1.4h0c1.8-2.7,1.4-6.5-1.3-8.4l-9.4-7.3c-2.7-1.9-6.2-1.5-8,1.4h0c-1.8,2.8-1.4,6.5,1.3,8.5h.2Z"/>
  </g>
</svg>