<?xml version="1.0" encoding="UTF-8"?>
<svg id="_图层_1" data-name="图层 1" xmlns="http://www.w3.org/2000/svg" version="1.1" viewBox="0 0 200 200">
  <defs>
    <style>
      .cls-1 {
        fill: #707070;
      }

      .cls-1, .cls-2 {
        stroke-width: 0px;
      }

      .cls-2 {
        fill: #feb833;
      }
    </style>
  </defs>
  <path class="cls-1" d="M100.1,172c35.3,0,65.9-30.6,65.9-65.9s-30.6-70.1-65.9-70.1S30,66.6,30,106.1s30.6,65.9,70.1,65.9ZM98,44.5c32.7,0,59.5,26.8,59.5,59.5s-26.8,59.5-59.5,59.5-59.5-26.8-59.5-59.5,26.8-59.5,59.5-59.5Z"/>
  <path class="cls-2" d="M89.5,70c0,4.7,3.8,8.5,8.5,8.5s8.5-3.8,8.5-8.5-3.8-8.5-8.5-8.5-8.5,3.8-8.5,8.5Z"/>
  <path class="cls-2" d="M115,138h-8.5v-51h-21.2v4.2h8.5v46.8h-8.5v4.2h29.8v-4.2Z"/>
</svg>