<?xml version="1.0" standalone="no"?><!DOCTYPE svg PUBLIC "-//W3C//DTD SVG 1.1//EN" "http://www.w3.org/Graphics/SVG/1.1/DTD/svg11.dtd"><svg t="1720343027528" class="icon" viewBox="0 0 1024 1024" version="1.1" xmlns="http://www.w3.org/2000/svg" p-id="1448" data-spm-anchor-id="a313x.collections_detail.0.i5.7ec83a81uirDsn" xmlns:xlink="http://www.w3.org/1999/xlink" width="200" height="200"><path d="M570.5728 836.1984a191.556267 191.556267 0 0 1-84.650667-19.592533l-1.6384-0.8192a53.0432 53.0432 0 0 1-22.391466-66.1504c-8.260267 0.4096-16.657067 0.477867-25.1904 0a48.401067 48.401067 0 0 1-36.0448-15.906134L294.024533 627.165867a50.039467 50.039467 0 0 1-15.086933-38.980267c0-6.826667 0-14.1312 0.6144-21.640533a52.155733 52.155733 0 0 1-58.1632-12.014934l-1.6384-1.570133a46.2848 46.2848 0 0 1-4.7104-7.304533v-0.4096a24.917333 24.917333 0 0 1-2.184533-3.6864 187.733333 187.733333 0 0 1-17.2032-112.8448 187.392 187.392 0 0 1 216.337066-154.146134 432.7424 432.7424 0 0 1 412.535467-106.564266l1.6384 0.477866a54.613333 54.613333 0 0 1 34.133333 32.631467 27.306667 27.306667 0 0 1 1.8432 5.666133 429.192533 429.192533 0 0 1-1.570133 223.300267 435.336533 435.336533 0 0 1-106.9056 188.757333 182.408533 182.408533 0 0 1-1.706667 69.905067 180.155733 180.155733 0 0 1-50.107733 93.047467l-1.4336 1.4336a188.142933 188.142933 0 0 1-100.693333 50.722133 190.532267 190.532267 0 0 1-29.149867 2.2528z m-56.7296-66.7648a137.6256 137.6256 0 0 0 77.346133 10.581333A133.5296 133.5296 0 0 0 662.186667 744.106667l1.024-1.024a127.044267 127.044267 0 0 0 35.2256-65.467734 130.935467 130.935467 0 0 0-1.4336-62.327466 27.306667 27.306667 0 0 1 6.144-25.326934l3.2768-3.618133a27.306667 27.306667 0 0 1 8.8064-6.826667 379.767467 379.767467 0 0 0 92.501333-164.2496 374.647467 374.647467 0 0 0 1.501867-194.013866v-0.955734a378.129067 378.129067 0 0 0-364.1344 98.304l-4.983467 4.983467a27.306667 27.306667 0 0 1-26.487467 6.826667A131.6864 131.6864 0 0 0 249.582933 436.906667a133.802667 133.802667 0 0 0 10.513067 76.936533 149.777067 149.777067 0 0 1 36.317867-23.005867l1.160533-0.477866 5.393067-2.184534a27.306667 27.306667 0 0 1 36.795733 31.266134c-0.8192 3.549867-1.365333 7.5776-1.979733 11.810133 0 1.979733-0.546133 3.8912-0.887467 5.9392a438.0672 438.0672 0 0 0-3.345067 51.6096v0.6144l105.608534 106.018133a323.9936 323.9936 0 0 0 51.473066-3.345066 16.725333 16.725333 0 0 1 2.594134 0 78.506667 78.506667 0 0 0 9.147733-1.501867c2.4576-0.546133 4.983467-1.024 7.441067-1.4336a27.306667 27.306667 0 0 1 29.4912 37.410133l-2.116267 5.051734a142.062933 142.062933 0 0 1-23.3472 37.819733z m-76.5952-74.069333zM215.4496 545.723733l0.341333 0.4096z m593.237333-326.4512z" fill="#57576d" p-id="1449" data-spm-anchor-id="a313x.collections_detail.0.i4.7ec83a81uirDsn" class=""></path><path d="M636.177067 387.2768m-68.266667 0a68.266667 68.266667 0 1 0 136.533333 0 68.266667 68.266667 0 1 0-136.533333 0Z" fill="#feb833" p-id="1450" data-spm-anchor-id="a313x.collections_detail.0.i3.7ec83a81uirDsn" class="selected"></path><path d="M636.177067 482.850133a95.573333 95.573333 0 1 1 95.573333-95.573333 95.573333 95.573333 0 0 1-95.573333 95.573333z m0-136.533333a40.96 40.96 0 1 0 40.96 40.96 40.96 40.96 0 0 0-40.96-40.96z" fill="#57576d" p-id="1451" data-spm-anchor-id="a313x.collections_detail.0.i11.7ec83a81uirDsn" class=""></path><path d="M373.1456 531.387733m-13.653333 0a13.653333 13.653333 0 1 0 27.306666 0 13.653333 13.653333 0 1 0-27.306666 0Z" fill="#57576d" p-id="1452" data-spm-anchor-id="a313x.collections_detail.0.i7.7ec83a81uirDsn" class="selected"></path><path d="M486.536533 670.72a13.653333 13.653333 0 0 1-10.103466-4.369067l-88.746667-96.8704a13.653333 13.653333 0 0 1 20.138667-18.500266l88.746666 96.8704a13.653333 13.653333 0 0 1-10.0352 22.869333z" fill="#57576d" p-id="1453" data-spm-anchor-id="a313x.collections_detail.0.i6.7ec83a81uirDsn" class=""></path><path d="M172.987733 775.099733L281.941333 671.744" fill="#1990FF" p-id="1454"></path><path d="M172.987733 802.4064a27.306667 27.306667 0 0 1-18.773333-47.104l109.226667-103.355733a27.306667 27.306667 0 1 1 37.614933 39.594666l-109.226667 103.355734a27.306667 27.306667 0 0 1-18.8416 7.509333z" fill="#feb833" p-id="1455" data-spm-anchor-id="a313x.collections_detail.0.i9.7ec83a81uirDsn" class=""></path><path d="M243.643733 848.008533l108.885334-103.424" fill="#1990FF" p-id="1456"></path><path d="M243.643733 875.3152a27.306667 27.306667 0 0 1-18.8416-47.104l109.226667-103.424A27.306667 27.306667 0 1 1 371.370667 764.586667l-109.226667 103.424a27.306667 27.306667 0 0 1-18.500267 7.304533z" fill="#feb833" p-id="1457" data-spm-anchor-id="a313x.collections_detail.0.i8.7ec83a81uirDsn" class=""></path></svg>