<?xml version="1.0" encoding="UTF-8"?>
<svg id="_图层_1" data-name="图层 1" xmlns="http://www.w3.org/2000/svg" version="1.1" viewBox="0 0 200 200">
  <defs>
    <style>
      .cls-1 {
        fill: #707070;
      }

      .cls-1, .cls-2, .cls-3 {
        stroke-width: 0px;
      }

      .cls-2 {
        fill: #f08534;
      }

      .cls-3 {
        fill: #19b89d;
      }
    </style>
  </defs>
  <path class="cls-3" d="M63.4,98.7c15.1,0,27.4-13.9,27.4-31.1s-12.3-31.1-27.4-31.1c-15.1,0-27.4,13.9-27.4,31s12.3,31.1,27.4,31.1ZM63.4,46.8c10.2,0,18.5,9.4,18.5,20.9s-8.3,20.9-18.5,20.9-18.4-9.4-18.4-20.9c0-11.5,8.3-20.9,18.4-20.9Z"/>
  <path class="cls-2" d="M129.6,98.7c17.9,0,32.5-16.5,32.5-36.8s-14.6-36.8-32.5-36.8-32.5,16.5-32.5,36.8,14.6,36.8,32.5,36.8ZM129.6,35.2c13,0,23.6,12,23.6,26.7s-10.6,26.7-23.6,26.7-23.5-12-23.5-26.7c0-14.7,10.6-26.7,23.5-26.7Z"/>
  <path class="cls-1" d="M175.1,105.4c-.7-.4-1.4-.6-2.1-.6s-1.7.3-2.4.8l-23.7,17.4v-6.3c0-6-4.3-10.8-9.6-10.8H50.7c-5.3,0-9.6,4.9-9.6,10.8v46.2c0,6,4.3,10.8,9.6,10.8h86.6c5.3,0,9.6-4.9,9.6-10.8v-6.3l23.7,17.4c.7.5,1.6.8,2.4.8s1.5-.2,2.1-.6c1.4-.9,2.3-2.6,2.3-4.5v-60c0-1.9-.9-3.6-2.3-4.4ZM50,163l.6-46.9,87.3.7v46.9s-87.9-.7-87.9-.7ZM168.5,160.5l-21.6-16.3.3-9.3,21.4-15.7v41.3h0Z"/>
  <path class="cls-2" d="M120.7,61.9c0,5.6,4,10.1,8.9,10.1s8.9-4.5,8.9-10.1-4-10.1-8.9-10.1-8.9,4.5-8.9,10.1Z"/>
  <path class="cls-3" d="M58.9,67.7c0,2.8,2,5,4.5,5s4.5-2.3,4.5-5h0c0-2.8-2-5-4.5-5-2.5,0-4.5,2.3-4.5,5h0Z"/>
</svg>