<?xml version="1.0" standalone="no"?><!DOCTYPE svg PUBLIC "-//W3C//DTD SVG 1.1//EN" "http://www.w3.org/Graphics/SVG/1.1/DTD/svg11.dtd"><svg t="1720332168875" class="icon" viewBox="0 0 1024 1024" version="1.1" xmlns="http://www.w3.org/2000/svg" p-id="20440" xmlns:xlink="http://www.w3.org/1999/xlink" width="200" height="200"><path d="M592.7424 654.7968m-179.0976 0a179.0976 179.0976 0 1 0 358.1952 0 179.0976 179.0976 0 1 0-358.1952 0Z" fill="#FF9900" p-id="20441" data-spm-anchor-id="a313x.collections_detail.0.i28.2d403a81HH9pmD" class=""></path><path d="M512 922.5216c-226.8672 0-411.4432-184.576-411.4432-411.4432S285.1328 99.6352 512 99.6352s411.4432 184.576 411.4432 411.4432-184.576 411.4432-411.4432 411.4432z m0-751.2064c-187.3408 0-339.7632 152.4224-339.7632 339.7632s152.4224 339.7632 339.7632 339.7632 339.7632-152.4224 339.7632-339.7632S699.3408 171.3152 512 171.3152z" fill="#707070" p-id="20442" data-spm-anchor-id="a313x.collections_detail.0.i26.2d403a81HH9pmD" class="selected"></path><path d="M461.4144 672.256c-14.3872 0-28.7232-3.7888-41.8304-11.3152-26.2144-15.104-41.8304-42.1888-41.8304-72.448V408.576c0-30.2592 15.616-57.344 41.8304-72.448 26.2144-15.104 57.4464-15.104 83.6608 0l155.8016 89.9584c26.2144 15.104 41.8304 42.1888 41.8304 72.448s-15.616 57.344-41.8304 72.448l-155.8016 89.9584c-13.1072 7.5264-27.4944 11.3152-41.8304 11.3152z m0-275.712c-2.56 0-4.7104 0.9216-5.9904 1.6896-2.2528 1.28-5.9904 4.352-5.9904 10.3424v179.8656c0 5.9904 3.7376 9.0624 5.9904 10.3424 2.2528 1.28 6.7584 3.0208 11.9808 0l155.8016-89.9584c5.2224-3.0208 5.9904-7.7824 5.9904-10.3424s-0.768-7.3728-5.9904-10.3424L467.3536 398.1824c-2.0992-1.2288-4.1472-1.6384-5.9392-1.6384z" fill="#707070" p-id="20443" data-spm-anchor-id="a313x.collections_detail.0.i27.2d403a81HH9pmD" class="selected"></path></svg>