<?xml version="1.0" encoding="UTF-8"?>
<svg id="_图层_1" data-name=" 图层 1" xmlns="http://www.w3.org/2000/svg" version="1.1" viewBox="0 0 200 200">
  <defs>
    <style>
      .cls-1 {
        fill: #f08534;
      }

      .cls-1, .cls-2 {
        stroke-width: 0px;
      }

      .cls-2 {
        fill: #707070;
      }
    </style>
  </defs>
  <path class="cls-2" d="M163.1,58.5h-92.3c-2.7,0-4.9-2.4-4.9-5.3s2.2-5.3,4.9-5.3h92.3c2.7,0,4.9,2.4,4.9,5.3s-2.2,5.3-4.9,5.3Z"/>
  <path class="cls-2" d="M66.7,74.3h-29.8c-2.7,0-4.9-2.4-4.9-5.3v-31.7c0-2.9,2.2-5.3,4.9-5.3h29.8c2.7,0,4.9,2.4,4.9,5.3v31.8c0,2.9-2.2,5.3-4.9,5.3h0ZM41.8,63.8h20.1v-21.2h-20.1s0,21.2,0,21.2ZM162.5,153h-92.3c-2.7,0-4.9-2.4-4.9-5.3s2.2-5.3,4.9-5.3h92.3c2.7,0,4.9,2.4,4.9,5.3s-2.2,5.3-4.8,5.3h0Z"/>
  <path class="cls-2" d="M66.2,168.9h-29.8c-2.7,0-4.9-2.4-4.9-5.3v-31.7c0-2.9,2.2-5.3,4.9-5.3h29.8c2.7,0,4.9,2.4,4.9,5.3v31.8c0,2.9-2.2,5.3-4.8,5.3h0ZM41.2,158.3h20.1v-21.2h-20.1s0,21.2,0,21.2Z"/>
  <path class="cls-2" d="M129.1,108.3H36.8c-2.7,0-4.9-2.4-4.9-5.3s2.2-5.3,4.9-5.3h92.3c2.7,0,4.9,2.4,4.9,5.3s-2.2,5.3-4.8,5.3h0Z"/>
  <path class="cls-1" d="M162.9,124.2h-29.8c-2.7,0-4.9-2.4-4.9-5.3v-31.7c0-2.9,2.2-5.3,4.9-5.3h29.8c2.7,0,4.9,2.4,4.9,5.3v31.7c0,2.9-2.2,5.3-4.8,5.3h0ZM137.9,113.6h20.1v-21.2h-20.1v21.2Z"/>
</svg>