<?xml version="1.0" standalone="no"?><!DOCTYPE svg PUBLIC "-//W3C//DTD SVG 1.1//EN" "http://www.w3.org/Graphics/SVG/1.1/DTD/svg11.dtd"><svg t="1633786776071" class="icon" viewBox="0 0 1024 1024" version="1.1" xmlns="http://www.w3.org/2000/svg" p-id="39771" xmlns:xlink="http://www.w3.org/1999/xlink" width="300" height="300"><defs><style type="text/css"></style></defs><path d="M798.72 81.92H225.28C145.408 81.92 81.92 131.072 81.92 192.512V831.488c0 61.44 63.488 110.592 143.36 110.592h573.44c77.824 0 143.36-49.152 143.36-110.592V192.512c0-61.44-63.488-110.592-143.36-110.592z" fill="#6960F7" p-id="39772"></path><path d="M739.328 335.872c0-30.72 0-71.68-28.672-90.112-16.384-10.24-36.864-12.288-61.44-2.048l-247.808 100.352h-2.048c-34.816 16.384-38.912 45.056-38.912 71.68v180.224c-22.528-4.096-49.152 0-73.728 14.336-43.008 28.672-59.392 81.92-34.816 118.784 24.576 38.912 79.872 47.104 122.88 18.432 28.672-18.432 45.056-47.104 47.104-75.776V444.416L679.936 348.16v178.176c-24.576-6.144-51.2 0-73.728 14.336-43.008 28.672-59.392 81.92-34.816 118.784 24.576 38.912 79.872 47.104 122.88 18.432 26.624-18.432 43.008-45.056 47.104-73.728 0-2.048 2.048-6.144 2.048-10.24V335.872z" fill="#FFFFFF" p-id="39773"></path></svg>